<?xml version="1.0" encoding="UTF-8" standalone="no"?>
<svg
   id="Layer_1"
   viewBox="0 0 1000 682.09"
   version="1.1"
   sodipodi:docname="hapee-world.svg"
   inkscape:version="1.1.2 (0a00cf5339, 2022-02-04)"
   xmlns:inkscape="http://www.inkscape.org/namespaces/inkscape"
   xmlns:sodipodi="http://sodipodi.sourceforge.net/DTD/sodipodi-0.dtd"
   xmlns="http://www.w3.org/2000/svg"
   xmlns:svg="http://www.w3.org/2000/svg">
  <sodipodi:namedview
     id="namedview629"
     pagecolor="#ffffff"
     bordercolor="#666666"
     borderopacity="1.0"
     inkscape:pageshadow="2"
     inkscape:pageopacity="0.0"
     inkscape:pagecheckerboard="0"
     showgrid="false"
     inkscape:zoom="1.7563665"
     inkscape:cx="492.7787"
     inkscape:cy="348.16196"
     inkscape:window-width="2560"
     inkscape:window-height="1528"
     inkscape:window-x="2560"
     inkscape:window-y="0"
     inkscape:window-maximized="1"
     inkscape:current-layer="Layer_1" />
  <defs
     id="defs338">
    <style
       id="style336">.cls-1{fill:#fff;}.cls-1,.cls-2,.cls-3,.cls-4,.cls-5,.cls-6,.cls-7,.cls-8,.cls-9,.cls-10,.cls-11,.cls-12,.cls-13,.cls-14,.cls-15,.cls-16,.cls-17{fill-rule:evenodd;}.cls-18{fill:#b5e0f7;}.cls-2{fill:#1c88c5;}.cls-3{fill:#5fa4d9;}.cls-4{fill:#385baa;}.cls-5{fill:#66acde;}.cls-6{fill:#5590c0;}.cls-7{fill:#fcdc99;}.cls-8{fill:#5089b6;}.cls-9{fill:#fefefe;}.cls-19,.cls-12{opacity:.14;}.cls-10{fill:#5fa2d8;}.cls-11{fill:#cfe9f6;}.cls-13{fill:#80c6ed;}.cls-20,.cls-15{fill:#80c7ee;}.cls-14{fill:#398dbc;}.cls-21{fill:#42a5dc;}.cls-16{fill:#0e6b9f;}.cls-22{fill:none;stroke:#084669;stroke-linecap:round;stroke-linejoin:round;stroke-width:3.24px;}</style>
  </defs>
  <g
     id="g3779"
     transform="matrix(0.2,0,0,0.2,359.33641,251.08225)"
     inkscape:export-filename="/home/mark/hapee-webapp/frontend/app/blog/assets/images/hapee-world.png"
     inkscape:export-xdpi="96"
     inkscape:export-ydpi="96">
    <g
       id="g556"
       transform="rotate(12.465621,263.29584,620.65685)">
      <path
         class="cls-8"
         d="m 149.61,394.42 c -0.74,14.97 33.04,73.48 41.85,85.44 5.19,7.04 31.52,4.28 35.69,-4.82 4.17,-9.1 -12.78,-58.3 -10.82,-70.35 -14.75,-3.16 -35.81,-6.46 -50.56,-9.62"
         id="path506" />
      <path
         class="cls-6"
         d="m 57.54,346.52 c -5.3,16.15 -4.19,55.99 -14.35,62.41 -10.15,6.42 -16.52,1.71 -25.14,9.56 -8.63,7.84 -2.99,12.69 12.18,9.52 15.17,-3.16 26.57,-17.59 29.16,-40.46 2.58,-22.86 9.8,-53.79 -1.85,-41.03"
         id="path508" />
      <path
         class="cls-15"
         d="m 382.77,260.95 c -16.57,10.85 -41.23,2.72 -49.31,-6.14 -8.08,-8.87 -13.5,39.12 21.13,53.25 19.26,7.86 36.69,0.91 48.36,-6.81 5.39,-3.56 7.91,-10.39 3.63,-17.89 -4.56,-8 -12.45,-17.24 -7.56,-36.18 0,0 -11.91,10.93 -16.25,13.77 z"
         id="path510" />
      <path
         class="cls-3"
         d="m 378.63,240.96 c 9.35,-15.7 14.58,-74.17 -19.96,-90.4 -17.1,-8.03 -68.23,-9.21 -85.58,17.15 -52.42,79.63 107.78,113.08 105.54,73.25"
         id="path512" />
      <path
         class="cls-13"
         d="m 408.89,439.64 c -0.04,0.65 -0.09,1.28 -0.15,1.9 -0.04,0.39 -0.26,0.78 -0.65,1.17 -3.76,3.91 -23.12,7.6 -31.8,5.4 -0.06,-0.01 -0.13,-0.04 -0.19,-0.05 -15.21,-4.2 -21.24,-61.28 -22.94,-69.71 -85.81,48.29 -132.32,51.46 -201.13,40.64 -2.21,-0.35 1.99,16.07 7.33,35.34 6.56,23.62 14.86,51.54 15.28,58.04 0.04,0.56 -0.17,1.1 -0.59,1.63 -0.03,0.04 -0.06,0.09 -0.1,0.13 -0.31,0.36 -0.71,0.71 -1.19,1.04 -5.22,3.59 -20.21,5.58 -28.75,3.73 -0.42,-0.09 -0.85,-0.19 -1.23,-0.31 -1.91,-0.54 -3.39,-1.32 -4.21,-2.36 C 127.35,504.81 84.21,453.39 64.32,405.68 44.79,358.8 58.78,319.38 81.18,291.28 104.52,262 137,244.98 150.26,244.59 c 6.16,-31.22 39.36,-79.41 63.33,-84.81 47.33,-10.64 161.55,-15.46 182.31,60.6 6.19,34.79 -5.8,43.75 8.74,68.87 0.35,2.46 0.68,4.94 0.99,7.43 6.97,56.19 4.57,119.15 3.27,142.96 z"
         id="path514" />
      <path
         class="cls-15"
         d="m 246.61,139.59 c -1.69,-2.17 -11.72,-14.59 -25.1,-14.16 -5.08,0.16 -9.47,2.15 -9.36,3.27 0.16,1.55 8.78,-0.1 15.29,5.67 5.01,4.45 6.65,11.41 5.69,12.14 -0.97,0.74 -4.38,-5.09 -12.61,-8.3 -0.7,-0.28 -2.48,-0.94 -4.8,-1.38 -8.17,-1.56 -15.66,1.01 -15.54,2.12 0.14,1.27 9.99,-1.47 17.94,4.93 4.96,3.99 7.89,10.51 6.76,11.84 -0.81,0.94 -3.27,-1.19 -8.87,-3.13 -6.33,-2.18 -13.71,-3.11 -14.15,-1.63 -0.41,1.35 5.4,3.1 11.18,9.34 7.29,7.87 5.79,13.43 10.16,15.86 9.1,5.06 31.13,-10.31 29.46,-25.17 -0.47,-4.26 -2.76,-7.18 -6.06,-11.4"
         id="path516" />
      <path
         class="cls-3"
         d="m 269.32,266.83 c -73.01,-130.75 -155.03,-43.91 -144.48,-4.16 10.56,39.74 47.68,61.44 82.5,32.35 24.98,-9.76 54.26,23.49 65.61,13.73 12.42,-10.68 2.21,-31.43 -3.64,-41.92"
         id="path518" />
      <g
         id="g526">
        <path
           class="cls-1"
           d="m 347.25,175.64 c -5.18,6.34 -1.81,17.87 7.51,25.76 9.33,7.9 21.08,9.16 26.26,2.82 5.18,-6.33 1.81,-17.87 -7.51,-25.76 -9.32,-7.89 -21.08,-9.16 -26.25,-2.82"
           id="path520" />
        <path
           class="cls-17"
           d="m 358.37,179.59 c -2.71,3.32 -0.95,9.35 3.93,13.49 4.88,4.14 11.04,4.8 13.75,1.48 2.71,-3.32 0.95,-9.35 -3.93,-13.49 -4.88,-4.13 -11.03,-4.8 -13.74,-1.48"
           id="path522" />
        <path
           class="cls-1"
           d="m 365.52,183.53 c 0.15,1.28 1.3,2.2 2.58,2.06 1.28,-0.15 2.2,-1.3 2.05,-2.58 -0.14,-1.28 -1.3,-2.2 -2.58,-2.06 -1.28,0.14 -2.19,1.3 -2.05,2.58"
           id="path524" />
      </g>
      <path
         class="cls-17"
         d="m 383.51,273.58 c -10.96,4.64 -28.41,1.52 -34.41,-2.07 -6,-3.59 -7.53,16.29 17.08,21.8 13.69,3.06 22,0.7 29.73,-2.6 3.57,-1.52 4,-3.57 1.69,-7.43 -2.59,-4.32 -5.99,-7.68 -3.48,-15.55 0,0 -7.74,4.63 -10.6,5.85 z"
         id="path536" />
      <path
         class="cls-20"
         d="m 451.44598,393.84765 c -2.29656,0.048 -4.35874,-0.59963 -6.19536,-1.68503 -4.60133,-2.68304 -7.8353,-8.09796 -9.82333,-12.46751 -1.71189,-3.77268 -0.94016,-8.19762 1.8728,-11.22889 2.83243,-3.05618 6.5155,-7.07304 9.32618,-10.34283 25.95221,-30.21165 24.62262,-44.656 18.12435,-65.11553 -5.37394,-16.88496 -31.22251,-33.4788 -61.31958,-24.44854 -29.18957,8.75198 -62.48201,9.7492 -80.41436,-4.42943 -26.48868,-20.95787 -31.46511,-61.43901 -31.46511,-61.43901 -2.40569,-26.71654 38.75908,-26.90174 50.43432,-0.43257 1.23402,2.81762 3.48991,5.04102 6.57034,6.86116 l 0.006,0.008 c 25.8984,15.27653 110.21633,1.39212 142.68689,58.03502 34.76436,60.67747 -26.97749,126.44192 -39.79434,126.6793 z"
         id="path538" />
      <path
         class="cls-10"
         d="m 149.07,514.34 c -4.57,5.38 -5.85,7.84 -10.51,1.9 C 127.34,504.82 84.2,453.4 64.31,405.69 c -19.53,-46.88 -5.54,-86.3 16.86,-114.4 -2.95,12.78 -12.04,24.29 -13.35,50.72 -1.13,22.69 0,47.18 30.8,97.64 12.43,20.37 50.46,74.7 50.46,74.7 z"
         id="path540" />
      <path
         class="cls-18"
         d="m 451.44878,393.83379 c -2.29656,0.048 -4.35874,-0.59963 -6.19536,-1.68503 39.08735,-42.37447 43.43274,-59.73331 44.55511,-76.99334 1.68635,-25.90389 -5.06808,-40.42032 -16.06547,-53.82488 -9.14926,-11.16259 -39.74187,-27.09213 -82.01725,-33.11907 -26.14657,-3.7337 -37.95167,-12.74945 -43.16958,-19.092 25.8984,15.27653 110.21632,1.39213 142.68689,58.03502 34.76436,60.67747 -26.97748,126.44192 -39.79434,126.6793 z"
         id="path542" />
      <path
         class="cls-8"
         d="m 376.61,358.92 c -8.68,44.25 -180.63,119.5 -227.36,80.29 -2.29,-1.93 -8.51,-16.22 -10.98,-30.62 55.69,20.28 199.68,-7.73 238.34,-49.66"
         id="path544" />
      <g
         id="g550">
        <path
           class="cls-15"
           d="m 326.6,477.6 c -0.08,0.18 -0.18,0.36 -0.27,0.54 -4.48,8.08 -24.29,11.6 -35.08,8.59 -2.72,-0.74 -4.86,-1.91 -6.06,-3.53 -10.23,-13.87 -34.29,-88.93 -33.43,-106.3 l 18.75,0.74 c 17.11,3.67 41,4.76 58.12,8.43 0.98,15.24 2.81,80.97 -2.02,91.53 z"
           id="path546" />
        <path
           class="cls-5"
           d="m 326.33,478.14 c -4.48,8.08 -24.29,11.6 -35.08,8.59 -0.03,-0.19 -0.03,-0.4 -0.03,-0.6 0,-8.33 8.51,-15.08 18.99,-15.08 6.8,0 12.77,2.84 16.12,7.1 z"
           id="path548" />
      </g>
      <path
         class="cls-15"
         d="m 148.64,399.67 c 0,0 1.75,28.83 12.23,59.41 10.48,30.58 -17.91,-1.75 -17.91,-1.75 0,0 -26.21,-43.69 -22.72,-55.04 3.49,-11.36 23.59,-11.8 28.4,-2.62 z"
         id="path552" />
      <path
         class="cls-5"
         d="m 405.99,442.42 c -0.07,0.57 -0.15,1.11 -0.24,1.64 -0.65,3.7 -20.43,6.49 -28.58,3.85 -0.06,-0.01 -0.11,-0.04 -0.16,-0.06 -0.04,-0.44 -0.04,-0.9 -0.01,-1.36 0.43,-6.48 7.65,-11.27 16.15,-10.71 5.63,0.37 10.4,3 12.85,6.62 z"
         id="path554" />
      <g
         id="g534">
        <path
           class="cls-1"
           d="m 274.95,200.59 c -10.01,8.49 -10.62,24.75 -1.36,36.32 9.27,11.57 24.88,14.07 34.89,5.59 10.01,-8.49 10.62,-24.74 1.35,-36.31 -9.26,-11.58 -24.88,-14.08 -34.89,-5.59"
           id="path528" />
        <path
           class="cls-17"
           d="m 285.85,206.75 c -4.18,5.48 -2.89,14.66 2.89,20.48 5.78,5.83 13.86,6.11 18.04,0.63 4.18,-5.48 2.89,-14.65 -2.89,-20.48 -5.78,-5.83 -13.85,-6.12 -18.04,-0.63"
           id="path530" />
        <path
           class="cls-1"
           d="m 296.04,212.52 c 0.08,1.91 1.68,3.4 3.59,3.32 1.91,-0.08 3.4,-1.68 3.32,-3.6 -0.07,-1.91 -1.68,-3.4 -3.59,-3.32 -1.9,0.07 -3.39,1.68 -3.32,3.6"
           id="path532" />
      </g>
    </g>
    <path
       class="cls-5"
       d="m 200.6624,498.44938 c 0,0 -0.0899,0.0825 -0.13763,0.11296 -0.4064,0.30957 -0.90613,0.57804 -1.5035,0.82491 -6.36624,2.57656 -22.67987,1.18234 -31.26818,-2.77477 -0.42757,-0.19693 -0.85298,-0.40363 -1.22742,-0.6093 4.11733,-6.90402 12.31526,-10.72453 20.58558,-8.89625 6.33701,1.40089 11.24664,5.78398 13.55876,11.35438 z"
       id="path558" />
  </g>
  <path
     d="m 196.90131,353.47725 v -15.76003 h -19.26 v 15.76003 h -7.01 v -38.52 h 7.01 v 15.75999 h 19.26 v -15.75999 h 6.99998 v 38.52 z"
     fill="#5899d4"
     id="path9"
     style="stroke-width:0.999999"
     inkscape:export-filename="/home/mark/hapee-webapp/frontend/app/blog/assets/images/hapee-world.png"
     inkscape:export-xdpi="96"
     inkscape:export-ydpi="96" />
  <path
     d="m 240.50129,345.59724 h -19.8 l -3.60998,7.88001 h -7.72002 l 17.28,-38.52 h 7.85 l 17.26001,38.52 h -7.78999 z m -9.92999,-23.36002 -7.11999,16.35001 h 14.26999 z"
     fill="#3d6da5"
     id="path11"
     style="stroke-width:0.999999"
     inkscape:export-filename="/home/mark/hapee-webapp/frontend/app/blog/assets/images/hapee-world.png"
     inkscape:export-xdpi="96"
     inkscape:export-ydpi="96" />
  <path
     d="m 105.98731,311.97524 0.27001,-0.23811 9.23399,10.45599 -0.27,0.23811 z"
     fill="#2a4a6c"
     id="path17"
     style="stroke-width:0.999999"
     inkscape:export-filename="/home/mark/hapee-webapp/frontend/app/blog/assets/images/hapee-world.png"
     inkscape:export-xdpi="96"
     inkscape:export-ydpi="96" />
  <path
     d="m 86.2813,314.25724 7.26,10.49001 -0.15001,0.10998 -7.26,-10.49998 z m 28.94001,7.95001 9.2,-10.50002 0.27001,0.24 -9.2,10.50002 z m 11.088,11.66 10.892,-9.203 0.23198,0.27515 -10.89199,9.20398 -0.23199,-0.27515 z"
     fill="#2a4a6c"
     id="path19"
     style="stroke-width:0.999999"
     inkscape:export-filename="/home/mark/hapee-webapp/frontend/app/blog/assets/images/hapee-world.png"
     inkscape:export-xdpi="96"
     inkscape:export-ydpi="96" />
  <path
     d="m 126.5413,333.86725 10.89001,9.56001 -0.24,0.26986 -10.89001,-9.56002 z m -11.32699,11.57899 0.26698,-0.24113 9.235,10.24101 -0.26801,0.24113 -9.234,-10.24002 z"
     fill="#2a4a6c"
     id="path21"
     style="stroke-width:0.999999"
     inkscape:export-filename="/home/mark/hapee-webapp/frontend/app/blog/assets/images/hapee-world.png"
     inkscape:export-xdpi="96"
     inkscape:export-ydpi="96" />
  <path
     d="m 106.02231,355.44124 9.202,-10.24399 0.268,0.24 -9.202,10.24498 -0.268,-0.24 z m -12.671,-12.45199 10.492,-9.16301 0.23701,0.27212 -10.492,9.162 -0.23701,-0.26986 z"
     fill="#2a4a6c"
     id="path23"
     style="stroke-width:0.999999"
     inkscape:export-filename="/home/mark/hapee-webapp/frontend/app/blog/assets/images/hapee-world.png"
     inkscape:export-xdpi="96"
     inkscape:export-ydpi="96" />
  <path
     d="m 93.35031,324.94424 0.23701,-0.271 10.492,9.16199 -0.23702,0.27213 z"
     fill="#2a4a6c"
     id="path25"
     style="stroke-width:0.999999"
     inkscape:export-filename="/home/mark/hapee-webapp/frontend/app/blog/assets/images/hapee-world.png"
     inkscape:export-xdpi="96"
     inkscape:export-ydpi="96" />
  <path
     d="m 115.37131,322.50723 -21.88001,2.48002 -0.04,-0.36019 21.88,-2.48002 z"
     fill="#2a4a6c"
     id="path27"
     style="stroke-width:0.999999"
     inkscape:export-filename="/home/mark/hapee-webapp/frontend/app/blog/assets/images/hapee-world.png"
     inkscape:export-xdpi="96"
     inkscape:export-ydpi="96" />
  <path
     d="m 115.37131,322.14723 21.96,2.48002 -0.04,0.36019 -21.96,-2.48002 z"
     fill="#2a4a6c"
     id="path29"
     style="stroke-width:0.999999"
     inkscape:export-filename="/home/mark/hapee-webapp/frontend/app/blog/assets/images/hapee-world.png"
     inkscape:export-xdpi="96"
     inkscape:export-ydpi="96" />
  <path
     d="m 126.2413,334.01726 -1.86999,-22.17003 0.36998,-0.0302 1.86,22.17003 z"
     fill="#2a4a6c"
     id="path31"
     style="stroke-width:0.999999"
     inkscape:export-filename="/home/mark/hapee-webapp/frontend/app/blog/assets/images/hapee-world.png"
     inkscape:export-xdpi="96"
     inkscape:export-ydpi="96" />
  <path
     d="m 126.6013,334.01726 -1.82999,21.55997 -0.36,-0.0302 1.82999,-21.55997 z"
     fill="#2a4a6c"
     id="path33"
     style="stroke-width:0.999999"
     inkscape:export-filename="/home/mark/hapee-webapp/frontend/app/blog/assets/images/hapee-world.png"
     inkscape:export-xdpi="96"
     inkscape:export-ydpi="96" />
  <path
     d="m 137.33131,343.74723 -21.96,1.76002 -0.0299,-0.36019 21.96,-1.76002 z"
     fill="#2a4a6c"
     id="path35"
     style="stroke-width:0.999999"
     inkscape:export-filename="/home/mark/hapee-webapp/frontend/app/blog/assets/images/hapee-world.png"
     inkscape:export-xdpi="96"
     inkscape:export-ydpi="96" />
  <path
     d="m 93.45231,343.31724 0.0359,-0.35906 21.89,2.193 -0.0352,0.35792 -21.89,-2.19198 z"
     fill="#2a4a6c"
     id="path37"
     style="stroke-width:0.999999"
     inkscape:export-filename="/home/mark/hapee-webapp/frontend/app/blog/assets/images/hapee-world.png"
     inkscape:export-xdpi="96"
     inkscape:export-ydpi="96" />
  <path
     d="m 105.9713,355.58725 -2.18999,-21.6 0.36,-0.0401 2.18999,21.6 z"
     fill="#2a4a6c"
     id="path39"
     style="stroke-width:0.999999"
     inkscape:export-filename="/home/mark/hapee-webapp/frontend/app/blog/assets/images/hapee-world.png"
     inkscape:export-xdpi="96"
     inkscape:export-ydpi="96" />
  <path
     d="m 106.30131,311.88725 -2.16,22.1 -0.36,-0.0401 2.16,-22.09999 z m -22.92,15.67 10.05999,-2.84001 0.05,0.17008 -10.06,2.84001 z"
     fill="#2a4a6c"
     id="path41"
     style="stroke-width:0.999999"
     inkscape:export-filename="/home/mark/hapee-webapp/frontend/app/blog/assets/images/hapee-world.png"
     inkscape:export-xdpi="96"
     inkscape:export-ydpi="96" />
  <path
     d="m 95.5293,304.46725 0.10402,-0.14703 10.528,7.47304 -0.105,0.14702 z"
     fill="#2a4a6c"
     id="path43"
     style="stroke-width:0.999999"
     inkscape:export-filename="/home/mark/hapee-webapp/frontend/app/blog/assets/images/hapee-world.png"
     inkscape:export-xdpi="96"
     inkscape:export-ydpi="96" />
  <path
     d="m 106.0313,311.84522 2.407,-12.21498 0.177,0.034 -2.408,12.21502 z"
     fill="#2a4a6c"
     id="path45"
     style="stroke-width:0.999999"
     inkscape:export-filename="/home/mark/hapee-webapp/frontend/app/blog/assets/images/hapee-world.png"
     inkscape:export-xdpi="96"
     inkscape:export-ydpi="96" />
  <path
     d="m 108.47131,299.71226 0.10802,-0.14287 16.02599,12.18199 -0.109,0.14286 z"
     fill="#2a4a6c"
     id="path47"
     style="stroke-width:0.999999"
     inkscape:export-filename="/home/mark/hapee-webapp/frontend/app/blog/assets/images/hapee-world.png"
     inkscape:export-xdpi="96"
     inkscape:export-ydpi="96" />
  <path
     d="m 122.24131,299.62726 2.4,12.17998 -0.18002,0.0401 -2.4,-12.17998 z"
     fill="#2a4a6c"
     id="path49"
     style="stroke-width:0.999999"
     inkscape:export-filename="/home/mark/hapee-webapp/frontend/app/blog/assets/images/hapee-world.png"
     inkscape:export-xdpi="96"
     inkscape:export-ydpi="96" />
  <path
     d="m 135.14131,304.46725 -10.53,7.44 -0.10999,-0.15005 10.53,-7.44 z"
     fill="#2a4a6c"
     id="path51"
     style="stroke-width:0.999999"
     inkscape:export-filename="/home/mark/hapee-webapp/frontend/app/blog/assets/images/hapee-world.png"
     inkscape:export-xdpi="96"
     inkscape:export-ydpi="96" />
  <path
     d="m 144.4913,314.39724 -19.94999,-2.48002 0.0299,-0.1799 19.94001,2.48001 z"
     fill="#2a4a6c"
     id="path53"
     style="stroke-width:0.999999"
     inkscape:export-filename="/home/mark/hapee-webapp/frontend/app/blog/assets/images/hapee-world.png"
     inkscape:export-xdpi="96"
     inkscape:export-ydpi="96" />
  <path
     d="m 137.24131,324.74725 7.17999,-10.49001 0.15999,0.10016 -7.19,10.49998 z"
     fill="#2a4a6c"
     id="path55"
     style="stroke-width:0.999999"
     inkscape:export-filename="/home/mark/hapee-webapp/frontend/app/blog/assets/images/hapee-world.png"
     inkscape:export-xdpi="96"
     inkscape:export-ydpi="96" />
  <path
     d="m 137.3413,324.71724 10.24001,2.84001 -0.05,0.17008 -10.24,-2.84001 z"
     fill="#2a4a6c"
     id="path57"
     style="stroke-width:0.999999"
     inkscape:export-filename="/home/mark/hapee-webapp/frontend/app/blog/assets/images/hapee-world.png"
     inkscape:export-xdpi="96"
     inkscape:export-ydpi="96" />
  <path
     d="m 137.39131,324.75722 9.99,15.31004 -0.15001,0.10016 -9.99001,-15.31 z m -15.19,-25.03997 -16.03,12.22001 -0.10999,-0.14022 16.03,-12.21997 z"
     fill="#2a4a6c"
     id="path59"
     style="stroke-width:0.999999"
     inkscape:export-filename="/home/mark/hapee-webapp/frontend/app/blog/assets/images/hapee-world.png"
     inkscape:export-xdpi="96"
     inkscape:export-ydpi="96" />
  <path
     d="m 137.2213,324.81724 -2.22999,-20.41999 0.18999,-0.0189 2.22,20.42 z m 0.06,18.65998 9.99,-3.44999 0.06,0.17008 -9.99,3.44999 z"
     fill="#2a4a6c"
     id="path61"
     style="stroke-width:0.999999"
     inkscape:export-filename="/home/mark/hapee-webapp/frontend/app/blog/assets/images/hapee-world.png"
     inkscape:export-xdpi="96"
     inkscape:export-ydpi="96" />
  <path
     d="m 137.2313,343.50825 10.24001,-15.92001 0.15201,0.0971 -10.24,15.92001 z"
     fill="#2a4a6c"
     id="path63"
     style="stroke-width:0.999999"
     inkscape:export-filename="/home/mark/hapee-webapp/frontend/app/blog/assets/images/hapee-world.png"
     inkscape:export-xdpi="96"
     inkscape:export-ydpi="96" />
  <path
     d="m 137.39131,343.50723 7.18,9.74 -0.14,0.10998 -7.19,-9.73999 z"
     fill="#2a4a6c"
     id="path65"
     style="stroke-width:0.999999"
     inkscape:export-filename="/home/mark/hapee-webapp/frontend/app/blog/assets/images/hapee-world.png"
     inkscape:export-xdpi="96"
     inkscape:export-ydpi="96" />
  <path
     d="m 135.02731,363.20024 2.191,-19.65801 0.179,0.0189 -2.191,19.658 -0.18002,-0.0189 z"
     fill="#2a4a6c"
     id="path67"
     style="stroke-width:0.999999"
     inkscape:export-filename="/home/mark/hapee-webapp/frontend/app/blog/assets/images/hapee-world.png"
     inkscape:export-xdpi="96"
     inkscape:export-ydpi="96" />
  <path
     d="m 124.64131,355.49726 10.53,7.64999 -0.10001,0.15004 -10.53,-7.66 z"
     fill="#2a4a6c"
     id="path69"
     style="stroke-width:0.999999"
     inkscape:export-filename="/home/mark/hapee-webapp/frontend/app/blog/assets/images/hapee-world.png"
     inkscape:export-xdpi="96"
     inkscape:export-ydpi="96" />
  <path
     d="m 124.58131,355.47722 19.90999,-2.26998 0.02,0.19011 -19.91,2.26001 z"
     fill="#2a4a6c"
     id="path71"
     style="stroke-width:0.999999"
     inkscape:export-filename="/home/mark/hapee-webapp/frontend/app/blog/assets/images/hapee-world.png"
     inkscape:export-xdpi="96"
     inkscape:export-ydpi="96" />
  <path
     d="m 124.6813,355.58725 -2.40999,12.39998 -0.18002,-0.0401 2.41,-12.39999 z"
     fill="#2a4a6c"
     id="path73"
     style="stroke-width:0.999999"
     inkscape:export-filename="/home/mark/hapee-webapp/frontend/app/blog/assets/images/hapee-world.png"
     inkscape:export-xdpi="96"
     inkscape:export-ydpi="96" />
  <path
     d="m 124.65131,355.63725 -16.03,12.39999 -0.10999,-0.13985 16.02,-12.39998 z"
     fill="#2a4a6c"
     id="path75"
     style="stroke-width:0.999999"
     inkscape:export-filename="/home/mark/hapee-webapp/frontend/app/blog/assets/images/hapee-world.png"
     inkscape:export-xdpi="96"
     inkscape:export-ydpi="96" />
  <path
     d="m 106.24131,355.54726 2.41,12.39999 -0.17998,0.0401 -2.41,-12.40003 z"
     fill="#2a4a6c"
     id="path77"
     style="stroke-width:0.999999"
     inkscape:export-filename="/home/mark/hapee-webapp/frontend/app/blog/assets/images/hapee-world.png"
     inkscape:export-xdpi="96"
     inkscape:export-ydpi="96" />
  <path
     d="m 106.1053,355.63324 0.10999,-0.14286 16.026,12.395 -0.10998,0.14286 z"
     fill="#2a4a6c"
     id="path79"
     style="stroke-width:0.999999"
     inkscape:export-filename="/home/mark/hapee-webapp/frontend/app/blog/assets/images/hapee-world.png"
     inkscape:export-xdpi="96"
     inkscape:export-ydpi="96" />
  <path
     d="m 106.2113,355.63725 -10.52999,7.66001 -0.10999,-0.15005 10.53,-7.65003 z"
     fill="#2a4a6c"
     id="path81"
     style="stroke-width:0.999999"
     inkscape:export-filename="/home/mark/hapee-webapp/frontend/app/blog/assets/images/hapee-world.png"
     inkscape:export-xdpi="96"
     inkscape:export-ydpi="96" />
  <path
     d="m 106.1413,355.65724 -19.93999,-2.19001 0.02,-0.1799 19.94,2.19001 z"
     fill="#2a4a6c"
     id="path83"
     style="stroke-width:0.999999"
     inkscape:export-filename="/home/mark/hapee-webapp/frontend/app/blog/assets/images/hapee-world.png"
     inkscape:export-xdpi="96"
     inkscape:export-ydpi="96" />
  <path
     d="m 93.5413,343.18726 -7.26,10.23999 -0.15001,-0.10999 7.26,-10.23999 z"
     fill="#2a4a6c"
     id="path85"
     style="stroke-width:0.999999"
     inkscape:export-filename="/home/mark/hapee-webapp/frontend/app/blog/assets/images/hapee-world.png"
     inkscape:export-xdpi="96"
     inkscape:export-ydpi="96" />
  <path
     d="m 93.37231,343.13926 0.18001,-0.0189 2.157,20.09499 -0.17899,0.0189 z"
     fill="#2a4a6c"
     id="path87"
     style="stroke-width:0.999999"
     inkscape:export-filename="/home/mark/hapee-webapp/frontend/app/blog/assets/images/hapee-world.png"
     inkscape:export-xdpi="96"
     inkscape:export-ydpi="96" />
  <path
     d="m 93.4413,343.21723 -10.1,-3.15999 0.06,-0.17008 10.09001,3.15999 z"
     fill="#2a4a6c"
     id="path89"
     style="stroke-width:0.999999"
     inkscape:export-filename="/home/mark/hapee-webapp/frontend/app/blog/assets/images/hapee-world.png"
     inkscape:export-xdpi="96"
     inkscape:export-ydpi="96" />
  <path
     d="m 93.5413,324.85723 -10.08999,15.16003 -0.15999,-0.10016 10.1,-15.16003 z"
     fill="#2a4a6c"
     id="path91"
     style="stroke-width:0.999999"
     inkscape:export-filename="/home/mark/hapee-webapp/frontend/app/blog/assets/images/hapee-world.png"
     inkscape:export-xdpi="96"
     inkscape:export-ydpi="96" />
  <path
     d="m 93.39131,343.17724 -10.06,-15.48 0.15001,-0.10015 10.05999,15.49001 z m 2.29,-38.77999 -2.12001,20.41999 -0.18001,-0.0189 2.12,-20.42 z"
     fill="#2a4a6c"
     id="path93"
     style="stroke-width:0.999999"
     inkscape:export-filename="/home/mark/hapee-webapp/frontend/app/blog/assets/images/hapee-world.png"
     inkscape:export-xdpi="96"
     inkscape:export-ydpi="96" />
  <path
     d="m 86.1953,314.21726 19.91,-2.44404 0.0219,0.17802 -19.91,2.44501 -0.0219,-0.17801 z m 1.642,-13.473 0.06,-0.12586 7.73,3.70299 -0.061,0.127 -7.73,-3.70402 z"
     fill="#2a4a6c"
     id="path95"
     style="stroke-width:0.999999"
     inkscape:export-filename="/home/mark/hapee-webapp/frontend/app/blog/assets/images/hapee-world.png"
     inkscape:export-xdpi="96"
     inkscape:export-ydpi="96" />
  <path
     d="m 94.9453,295.91123 0.14,-0.0113 0.575,8.48103 -0.13999,0.0113 -0.57501,-8.48001 z"
     fill="#2a4a6c"
     id="path97"
     style="stroke-width:0.999999"
     inkscape:export-filename="/home/mark/hapee-webapp/frontend/app/blog/assets/images/hapee-world.png"
     inkscape:export-xdpi="96"
     inkscape:export-ydpi="96" />
  <path
     d="m 108.51131,299.71725 -13.52001,-3.73999 0.04,-0.13002 13.51,3.73002 z"
     fill="#2a4a6c"
     id="path99"
     style="stroke-width:0.999999"
     inkscape:export-filename="/home/mark/hapee-webapp/frontend/app/blog/assets/images/hapee-world.png"
     inkscape:export-xdpi="96"
     inkscape:export-ydpi="96" />
  <path
     d="m 102.72331,292.50224 0.10998,-0.0869 5.747,7.18401 -0.10998,0.0869 z"
     fill="#2a4a6c"
     id="path101"
     style="stroke-width:0.999999"
     inkscape:export-filename="/home/mark/hapee-webapp/frontend/app/blog/assets/images/hapee-world.png"
     inkscape:export-xdpi="96"
     inkscape:export-ydpi="96" />
  <path
     d="m 108.46131,299.62726 2.44,-8.52 0.13999,0.0401 -2.45,8.52 z m -12.92501,4.726 7.19,-11.93201 0.12,0.0729 -7.19,11.93103 z"
     fill="#2a4a6c"
     id="path103"
     style="stroke-width:0.999999"
     inkscape:export-filename="/home/mark/hapee-webapp/frontend/app/blog/assets/images/hapee-world.png"
     inkscape:export-xdpi="96"
     inkscape:export-ydpi="96" />
  <path
     d="m 110.93131,291.18024 0.084,-0.11112 11.175,8.516 -0.085,0.11111 z"
     fill="#2a4a6c"
     id="path105"
     style="stroke-width:0.999999"
     inkscape:export-filename="/home/mark/hapee-webapp/frontend/app/blog/assets/images/hapee-world.png"
     inkscape:export-xdpi="96"
     inkscape:export-ydpi="96" />
  <path
     d="m 122.08131,299.66725 -2.51,-8.84002 0.13001,-0.0401 2.51001,8.84001 z"
     fill="#2a4a6c"
     id="path107"
     style="stroke-width:0.999999"
     inkscape:export-filename="/home/mark/hapee-webapp/frontend/app/blog/assets/images/hapee-world.png"
     inkscape:export-xdpi="96"
     inkscape:export-ydpi="96" />
  <path
     d="m 108.48931,299.59226 11.10199,-8.83801 0.087,0.10998 -11.102,8.83699 -0.087,-0.10998 z m 13.602,0.0151 5.82999,-7.19002 0.10001,0.0801 -5.82,7.18999 z"
     fill="#2a4a6c"
     id="path109"
     style="stroke-width:0.999999"
     inkscape:export-filename="/home/mark/hapee-webapp/frontend/app/blog/assets/images/hapee-world.png"
     inkscape:export-xdpi="96"
     inkscape:export-ydpi="96" />
  <path
     d="m 127.91331,292.49023 0.12,-0.0711 7.115,11.93 -0.12,0.0711 z"
     fill="#2a4a6c"
     id="path111"
     style="stroke-width:0.999999"
     inkscape:export-filename="/home/mark/hapee-webapp/frontend/app/blog/assets/images/hapee-world.png"
     inkscape:export-xdpi="96"
     inkscape:export-ydpi="96" />
  <path
     d="m 135.02131,304.38723 0.75,-8.47997 0.13999,0.0113 -0.76,8.48001 z"
     fill="#2a4a6c"
     id="path113"
     style="stroke-width:0.999999"
     inkscape:export-filename="/home/mark/hapee-webapp/frontend/app/blog/assets/images/hapee-world.png"
     inkscape:export-xdpi="96"
     inkscape:export-ydpi="96" />
  <path
     d="m 122.1373,299.56924 13.69,-3.73799 0.0359,0.13607 -13.689,3.737 z m 12.91401,4.75801 7.91,-4.09001 0.06,0.11981 -7.9,4.09001 z"
     fill="#2a4a6c"
     id="path115"
     style="stroke-width:0.999999"
     inkscape:export-filename="/home/mark/hapee-webapp/frontend/app/blog/assets/images/hapee-world.png"
     inkscape:export-xdpi="96"
     inkscape:export-ydpi="96" />
  <path
     d="m 135.09131,304.32725 13.8,2.07999 -0.02,0.13984 -13.8,-2.09 z"
     fill="#2a4a6c"
     id="path117"
     style="stroke-width:0.999999"
     inkscape:export-filename="/home/mark/hapee-webapp/frontend/app/blog/assets/images/hapee-world.png"
     inkscape:export-xdpi="96"
     inkscape:export-ydpi="96" />
  <path
     d="m 144.44131,314.27724 4.39,-7.83999 0.10998,0.0699 -4.38,7.83999 z"
     fill="#2a4a6c"
     id="path119"
     style="stroke-width:0.999999"
     inkscape:export-filename="/home/mark/hapee-webapp/frontend/app/blog/assets/images/hapee-world.png"
     inkscape:export-xdpi="96"
     inkscape:export-ydpi="96" />
  <path
     d="m 144.4313,314.31722 -1.51,-14.01996 0.14,-0.0113 1.51,14.01997 z"
     fill="#2a4a6c"
     id="path121"
     style="stroke-width:0.999999"
     inkscape:export-filename="/home/mark/hapee-webapp/frontend/app/blog/assets/images/hapee-world.png"
     inkscape:export-xdpi="96"
     inkscape:export-ydpi="96" />
  <path
     d="m 144.48531,314.25123 9.059,-0.75397 0.011,0.13984 -9.058,0.75398 z"
     fill="#2a4a6c"
     id="path123"
     style="stroke-width:0.999999"
     inkscape:export-filename="/home/mark/hapee-webapp/frontend/app/blog/assets/images/hapee-world.png"
     inkscape:export-xdpi="96"
     inkscape:export-ydpi="96" />
  <path
     d="m 144.53131,314.24723 12.43999,7.05003 -0.07,0.12018 -12.43,-7.05002 z"
     fill="#2a4a6c"
     id="path125"
     style="stroke-width:0.999999"
     inkscape:export-filename="/home/mark/hapee-webapp/frontend/app/blog/assets/images/hapee-world.png"
     inkscape:export-xdpi="96"
     inkscape:export-ydpi="96" />
  <path
     d="m 147.4913,327.61723 6,-14.09 0.13002,0.0499 -6,14.09 z"
     fill="#2a4a6c"
     id="path127"
     style="stroke-width:0.999999"
     inkscape:export-filename="/home/mark/hapee-webapp/frontend/app/blog/assets/images/hapee-world.png"
     inkscape:export-xdpi="96"
     inkscape:export-ydpi="96" />
  <path
     d="m 147.51931,327.58424 9.377,-6.28698 0.078,0.11603 -9.377,6.28698 z"
     fill="#2a4a6c"
     id="path129"
     style="stroke-width:0.999999"
     inkscape:export-filename="/home/mark/hapee-webapp/frontend/app/blog/assets/images/hapee-world.png"
     inkscape:export-xdpi="96"
     inkscape:export-ydpi="96" />
  <path
     d="m 147.57131,327.57724 10.46,2.12002 -0.0299,0.13001 -10.46,-2.12001 z"
     fill="#2a4a6c"
     id="path131"
     style="stroke-width:0.999999"
     inkscape:export-filename="/home/mark/hapee-webapp/frontend/app/blog/assets/images/hapee-world.png"
     inkscape:export-xdpi="96"
     inkscape:export-ydpi="96" />
  <path
     d="m 147.26131,340.06726 10.71,-10.35001 0.09,0.10016 -10.71,10.34997 z"
     fill="#2a4a6c"
     id="path133"
     style="stroke-width:0.999999"
     inkscape:export-filename="/home/mark/hapee-webapp/frontend/app/blog/assets/images/hapee-world.png"
     inkscape:export-xdpi="96"
     inkscape:export-ydpi="96" />
  <path
     d="m 147.29131,340.03725 10.96,-2.049 0.0261,0.13796 -10.95999,2.04899 -0.0249,-0.13795 z"
     fill="#2a4a6c"
     id="path135"
     style="stroke-width:0.999999"
     inkscape:export-filename="/home/mark/hapee-webapp/frontend/app/blog/assets/images/hapee-world.png"
     inkscape:export-xdpi="96"
     inkscape:export-ydpi="96" />
  <path
     d="m 147.5053,327.69225 0.097,-0.10015 10.70701,10.41898 -0.097,0.10016 -10.70701,-10.42001 z m -0.22998,12.47498 0.077,-0.11717 9.377,6.251 -0.077,0.11717 -9.377,-6.25199 z"
     fill="#2a4a6c"
     id="path137"
     style="stroke-width:0.999999"
     inkscape:export-filename="/home/mark/hapee-webapp/frontend/app/blog/assets/images/hapee-world.png"
     inkscape:export-xdpi="96"
     inkscape:export-ydpi="96" />
  <path
     d="m 144.47131,353.24723 12.18,-6.93997 0.07,0.12019 -12.18999,6.92999 z"
     fill="#2a4a6c"
     id="path139"
     style="stroke-width:0.999999"
     inkscape:export-filename="/home/mark/hapee-webapp/frontend/app/blog/assets/images/hapee-world.png"
     inkscape:export-xdpi="96"
     inkscape:export-ydpi="96" />
  <path
     d="m 144.49431,353.37426 0.014,-0.13984 8.985,0.89899 -0.014,0.13909 z"
     fill="#2a4a6c"
     id="path141"
     style="stroke-width:0.999999"
     inkscape:export-filename="/home/mark/hapee-webapp/frontend/app/blog/assets/images/hapee-world.png"
     inkscape:export-xdpi="96"
     inkscape:export-ydpi="96" />
  <path
     d="m 147.3713,340.08725 6.18,14.09001 -0.13001,0.0499 -6.18,-14.09001 z m -2.93099,13.246 0.12298,-0.0661 4.27601,7.94199 -0.12299,0.0661 -4.276,-7.94102 z"
     fill="#2a4a6c"
     id="path143"
     style="stroke-width:0.999999"
     inkscape:export-filename="/home/mark/hapee-webapp/frontend/app/blog/assets/images/hapee-world.png"
     inkscape:export-xdpi="96"
     inkscape:export-ydpi="96" />
  <path
     d="m 142.81631,367.16923 1.61699,-13.87601 0.14,0.0151 -1.618,13.87601 -0.14,-0.0151 z"
     fill="#2a4a6c"
     id="path145"
     style="stroke-width:0.999999"
     inkscape:export-filename="/home/mark/hapee-webapp/frontend/app/blog/assets/images/hapee-world.png"
     inkscape:export-xdpi="96"
     inkscape:export-ydpi="96" />
  <path
     d="m 135.09131,363.29223 0.064,-0.12397 7.76101,3.95301 -0.063,0.12397 z"
     fill="#2a4a6c"
     id="path147"
     style="stroke-width:0.999999"
     inkscape:export-filename="/home/mark/hapee-webapp/frontend/app/blog/assets/images/hapee-world.png"
     inkscape:export-xdpi="96"
     inkscape:export-ydpi="96" />
  <path
     d="m 135.1913,363.21724 0.61001,8.69998 -0.14,0.0113 -0.61,-8.69998 z"
     fill="#2a4a6c"
     id="path149"
     style="stroke-width:0.999999"
     inkscape:export-filename="/home/mark/hapee-webapp/frontend/app/blog/assets/images/hapee-world.png"
     inkscape:export-xdpi="96"
     inkscape:export-ydpi="96" />
  <path
     d="m 135.11131,363.15722 13.66,-1.97998 0.02,0.13985 -13.66001,1.97 z"
     fill="#2a4a6c"
     id="path151"
     style="stroke-width:0.999999"
     inkscape:export-filename="/home/mark/hapee-webapp/frontend/app/blog/assets/images/hapee-world.png"
     inkscape:export-xdpi="96"
     inkscape:export-ydpi="96" />
  <path
     d="m 127.9093,375.29624 7.15401,-12.116 0.12,0.0711 -7.152,12.11599 -0.12,-0.0711 z"
     fill="#2a4a6c"
     id="path153"
     style="stroke-width:0.999999"
     inkscape:export-filename="/home/mark/hapee-webapp/frontend/app/blog/assets/images/hapee-world.png"
     inkscape:export-xdpi="96"
     inkscape:export-ydpi="96" />
  <path
     d="m 122.24131,367.92725 5.78,7.35999 -0.10001,0.0899 -5.79,-7.37 z"
     fill="#2a4a6c"
     id="path155"
     style="stroke-width:0.999999"
     inkscape:export-filename="/home/mark/hapee-webapp/frontend/app/blog/assets/images/hapee-world.png"
     inkscape:export-xdpi="96"
     inkscape:export-ydpi="96" />
  <path
     d="m 122.20131,367.89724 13.55,3.96 -0.04,0.13002 -13.55,-3.96 z"
     fill="#2a4a6c"
     id="path157"
     style="stroke-width:0.999999"
     inkscape:export-filename="/home/mark/hapee-webapp/frontend/app/blog/assets/images/hapee-world.png"
     inkscape:export-xdpi="96"
     inkscape:export-ydpi="96" />
  <path
     d="m 122.25131,367.98723 -2.55001,9.02 -0.12997,-0.0401 2.54999,-9.01999 z"
     fill="#2a4a6c"
     id="path159"
     style="stroke-width:0.999999"
     inkscape:export-filename="/home/mark/hapee-webapp/frontend/app/blog/assets/images/hapee-world.png"
     inkscape:export-xdpi="96"
     inkscape:export-ydpi="96" />
  <path
     d="m 122.2213,368.01724 -11.16999,9.02 -0.09,-0.10016 11.18,-9.01999 z"
     fill="#2a4a6c"
     id="path161"
     style="stroke-width:0.999999"
     inkscape:export-filename="/home/mark/hapee-webapp/frontend/app/blog/assets/images/hapee-world.png"
     inkscape:export-xdpi="96"
     inkscape:export-ydpi="96" />
  <path
     d="m 108.63131,367.94725 2.43999,9.01999 -0.13001,0.0401 -2.44,-9.01999 z"
     fill="#2a4a6c"
     id="path163"
     style="stroke-width:0.999999"
     inkscape:export-filename="/home/mark/hapee-webapp/frontend/app/blog/assets/images/hapee-world.png"
     inkscape:export-xdpi="96"
     inkscape:export-ydpi="96" />
  <path
     d="m 108.5223,368.02125 0.088,-0.10885 11.07,9.022 -0.088,0.10809 -11.07001,-9.022 z"
     fill="#2a4a6c"
     id="path165"
     style="stroke-width:0.999999"
     inkscape:export-filename="/home/mark/hapee-webapp/frontend/app/blog/assets/images/hapee-world.png"
     inkscape:export-xdpi="96"
     inkscape:export-ydpi="96" />
  <path
     d="m 102.75631,375.29325 5.753,-7.37 0.10998,0.0862 -5.752,7.37 -0.10999,-0.0862 z"
     fill="#2a4a6c"
     id="path167"
     style="stroke-width:0.999999"
     inkscape:export-filename="/home/mark/hapee-webapp/frontend/app/blog/assets/images/hapee-world.png"
     inkscape:export-xdpi="96"
     inkscape:export-ydpi="96" />
  <path
     d="m 95.68131,363.18723 7.19,12.11003 -0.12,0.0699 -7.18,-12.11002 z"
     fill="#2a4a6c"
     id="path169"
     style="stroke-width:0.999999"
     inkscape:export-filename="/home/mark/hapee-webapp/frontend/app/blog/assets/images/hapee-world.png"
     inkscape:export-xdpi="96"
     inkscape:export-ydpi="96" />
  <path
     d="m 108.58131,368.02726 -13.62,4.16999 -0.04,-0.13002 13.62,-4.17002 z"
     fill="#2a4a6c"
     id="path171"
     style="stroke-width:0.999999"
     inkscape:export-filename="/home/mark/hapee-webapp/frontend/app/blog/assets/images/hapee-world.png"
     inkscape:export-xdpi="96"
     inkscape:export-ydpi="96" />
  <path
     d="m 95.69131,363.22726 -0.68,8.90997 -0.14,-0.0113 0.69,-8.91001 z"
     fill="#2a4a6c"
     id="path173"
     style="stroke-width:0.999999"
     inkscape:export-filename="/home/mark/hapee-webapp/frontend/app/blog/assets/images/hapee-world.png"
     inkscape:export-xdpi="96"
     inkscape:export-ydpi="96" />
  <path
     d="m 95.6613,363.27722 -7.87,4.28002 -0.07,-0.12019 7.87,-4.28001 z"
     fill="#2a4a6c"
     id="path175"
     style="stroke-width:0.999999"
     inkscape:export-filename="/home/mark/hapee-webapp/frontend/app/blog/assets/images/hapee-world.png"
     inkscape:export-xdpi="96"
     inkscape:export-ydpi="96" />
  <path
     d="m 86.2813,353.36723 1.54001,14.12001 -0.13002,0.0189 -1.55,-14.12999 z"
     fill="#2a4a6c"
     id="path177"
     style="stroke-width:0.999999"
     inkscape:export-filename="/home/mark/hapee-webapp/frontend/app/blog/assets/images/hapee-world.png"
     inkscape:export-xdpi="96"
     inkscape:export-ydpi="96" />
  <path
     d="m 95.62131,363.28724 -13.77001,-1.87 0.02,-0.13001 13.76,1.86999 z"
     fill="#2a4a6c"
     id="path179"
     style="stroke-width:0.999999"
     inkscape:export-filename="/home/mark/hapee-webapp/frontend/app/blog/assets/images/hapee-world.png"
     inkscape:export-xdpi="96"
     inkscape:export-ydpi="96" />
  <path
     d="m 81.80431,361.32423 4.34999,-7.98199 0.12299,0.0669 -4.35,7.98199 z"
     fill="#2a4a6c"
     id="path181"
     style="stroke-width:0.999999"
     inkscape:export-filename="/home/mark/hapee-webapp/frontend/app/blog/assets/images/hapee-world.png"
     inkscape:export-xdpi="96"
     inkscape:export-ydpi="96" />
  <path
     d="m 86.21131,353.44724 -8.98001,0.85999 -0.01,-0.13984 8.98,-0.85999 z"
     fill="#2a4a6c"
     id="path183"
     style="stroke-width:0.999999"
     inkscape:export-filename="/home/mark/hapee-webapp/frontend/app/blog/assets/images/hapee-world.png"
     inkscape:export-xdpi="96"
     inkscape:export-ydpi="96" />
  <path
     d="m 86.1713,353.43722 -12.38999,-6.93996 0.06,-0.12019 12.4,6.93997 z"
     fill="#2a4a6c"
     id="path185"
     style="stroke-width:0.999999"
     inkscape:export-filename="/home/mark/hapee-webapp/frontend/app/blog/assets/images/hapee-world.png"
     inkscape:export-xdpi="96"
     inkscape:export-ydpi="96" />
  <path
     d="m 73.77631,346.38224 9.557,-6.46801 0.079,0.11603 -9.557,6.46798 z"
     fill="#2a4a6c"
     id="path187"
     style="stroke-width:0.999999"
     inkscape:export-filename="/home/mark/hapee-webapp/frontend/app/blog/assets/images/hapee-world.png"
     inkscape:export-xdpi="96"
     inkscape:export-ydpi="96" />
  <path
     d="m 83.3613,340.03725 -10.86,-1.90001 0.0299,-0.13984 10.85,1.90001 z"
     fill="#2a4a6c"
     id="path189"
     style="stroke-width:0.999999"
     inkscape:export-filename="/home/mark/hapee-webapp/frontend/app/blog/assets/images/hapee-world.png"
     inkscape:export-xdpi="96"
     inkscape:export-ydpi="96" />
  <path
     d="m 83.43131,339.99722 -6.14001,14.27003 -0.13001,-0.0601 6.15,-14.25997 z m 0.02,-12.30999 -10.89001,10.43002 -0.09,-0.10016 10.89,-10.42 z"
     fill="#2a4a6c"
     id="path191"
     style="stroke-width:0.999999"
     inkscape:export-filename="/home/mark/hapee-webapp/frontend/app/blog/assets/images/hapee-world.png"
     inkscape:export-xdpi="96"
     inkscape:export-ydpi="96" />
  <path
     d="m 83.32131,340.01726 -10.89001,-10.2 0.10001,-0.10016 10.89,10.2 z m 0.05,-12.32002 -9.31,-6.18002 0.07,-0.10998 9.31,6.18002 z"
     fill="#2a4a6c"
     id="path193"
     style="stroke-width:0.999999"
     inkscape:export-filename="/home/mark/hapee-webapp/frontend/app/blog/assets/images/hapee-world.png"
     inkscape:export-xdpi="96"
     inkscape:export-ydpi="96" />
  <path
     d="m 72.46831,329.69726 10.92599,-2.12002 0.0268,0.1372 -10.926,2.12001 -0.0268,-0.13795 z"
     fill="#2a4a6c"
     id="path195"
     style="stroke-width:0.999999"
     inkscape:export-filename="/home/mark/hapee-webapp/frontend/app/blog/assets/images/hapee-world.png"
     inkscape:export-xdpi="96"
     inkscape:export-ydpi="96" />
  <path
     d="m 83.3413,327.66723 -6.13999,-14.00999 0.12,-0.0601 6.14999,14.02 z"
     fill="#2a4a6c"
     id="path197"
     style="stroke-width:0.999999"
     inkscape:export-filename="/home/mark/hapee-webapp/frontend/app/blog/assets/images/hapee-world.png"
     inkscape:export-xdpi="96"
     inkscape:export-ydpi="96" />
  <path
     d="m 77.2483,313.68423 0.01,-0.13984 8.944,0.68201 -0.0102,0.13984 z"
     fill="#2a4a6c"
     id="path199"
     style="stroke-width:0.999999"
     inkscape:export-filename="/home/mark/hapee-webapp/frontend/app/blog/assets/images/hapee-world.png"
     inkscape:export-xdpi="96"
     inkscape:export-ydpi="96" />
  <path
     d="m 74.0663,321.40626 12.11601,-7.15401 0.071,0.11982 -12.115,7.15498 -0.072,-0.12019 z"
     fill="#2a4a6c"
     id="path201"
     style="stroke-width:0.999999"
     inkscape:export-filename="/home/mark/hapee-webapp/frontend/app/blog/assets/images/hapee-world.png"
     inkscape:export-xdpi="96"
     inkscape:export-ydpi="96" />
  <path
     d="m 81.9093,306.86925 0.12201,-0.0699 4.239,7.47197 -0.122,0.0692 z"
     fill="#2a4a6c"
     id="path203"
     style="stroke-width:0.999999"
     inkscape:export-filename="/home/mark/hapee-webapp/frontend/app/blog/assets/images/hapee-world.png"
     inkscape:export-xdpi="96"
     inkscape:export-ydpi="96" />
  <path
     d="m 86.14131,314.29723 1.64999,-13.61998 0.14,0.0189 -1.65,13.61998 z"
     fill="#2a4a6c"
     id="path205"
     style="stroke-width:0.999999"
     inkscape:export-filename="/home/mark/hapee-webapp/frontend/app/blog/assets/images/hapee-world.png"
     inkscape:export-xdpi="96"
     inkscape:export-ydpi="96" />
  <path
     d="m 81.96331,306.76826 13.622,-2.44403 0.0249,0.13795 -13.622,2.444 z"
     fill="#2a4a6c"
     id="path207"
     style="stroke-width:0.999999"
     inkscape:export-filename="/home/mark/hapee-webapp/frontend/app/blog/assets/images/hapee-world.png"
     inkscape:export-xdpi="96"
     inkscape:export-ydpi="96" />
  <path
     d="m 110.2313,327.13723 0.07,-10.42998 10.43,0.0699 -0.07,10.42998 z m -11.37999,12.25999 0.07,-10.42998 10.43,0.0699 -0.07,10.42999 z m 11.37999,11.38001 0.07,-10.42998 10.43,0.0699 -0.07,10.42998 z m 11.38001,-11.38001 0.07,-10.42998 10.43001,0.0699 -0.07,10.42999 z"
     fill="#3d6da5"
     id="path209"
     style="stroke-width:0.999999"
     inkscape:export-filename="/home/mark/hapee-webapp/frontend/app/blog/assets/images/hapee-world.png"
     inkscape:export-xdpi="96"
     inkscape:export-ydpi="96" />
  <path
     d="m 90.09131,328.03725 0.05,-6.95002 6.96,0.0499 -0.05,6.96 -6.96,-0.0499 z m 12.26,-13.13 0.05,-6.96 6.96,0.0499 -0.05,6.96 z m 18.37999,0 0.05,-6.96 6.95,0.0499 -0.05,6.96 -6.96,-0.0499 z m 13.13,13.11001 0.07,-6.93003 6.93,0.0699 -0.07,6.93003 z m 0,18.41 0.05,-6.96 6.96,0.0499 -0.05,6.96 z m -13.13,13.12996 0.05,-6.96 6.96,0.0499 -0.05,6.96 z m -18.37999,0 0.05,-6.96 6.96,0.0499 -0.05,6.96 -6.95001,-0.0499 z m -12.26,-13.14999 0.07,-6.92999 6.93,0.0699 -0.07,6.92999 z"
     fill="#4d76b9"
     id="path211"
     style="stroke-width:0.999999"
     inkscape:export-filename="/home/mark/hapee-webapp/frontend/app/blog/assets/images/hapee-world.png"
     inkscape:export-xdpi="96"
     inkscape:export-ydpi="96" />
  <path
     d="m 83.9613,316.66726 0.04,-5.22002 5.22,0.0401 -0.04,5.22002 z m 8.75,-9.63001 0.04,-5.22002 5.22,0.0401 -0.04,5.21998 z m 13.13,-4.38002 0.04,-5.21998 5.22,0.0401 -0.04,5.22002 z m 13.98,-5.21998 4.41001,-0.0302 0.0299,4.40999 -4.40999,0.0302 z m 13.13001,4.37998 4.41,-0.0302 0.0299,4.41003 -4.41,0.0302 z m 9.63,10.51 4.41,-0.0302 0.0299,4.41003 -4.41,0.0302 z m 2.62999,13.13 4.41001,-0.0302 0.0299,4.41003 -4.41,0.0302 z m -0.84,17.47 0.04,-5.21998 5.22,0.0401 -0.04,5.21998 z m -2.62999,13.13 0.04,-5.21998 5.22001,0.0401 -0.04,5.21998 z m -9.63,9.63001 0.04,-5.21998 5.22,0.0401 -0.04,5.21998 z m -12.26,5.24999 0.04,-5.21998 5.22,0.0401 -0.04,5.21998 z m -13.16001,-5.21998 4.41001,-0.0302 0.0299,4.40999 -4.40999,0.0302 z m -13.13,-4.38002 4.41001,-0.0302 0.0299,4.41 -4.41001,0.0302 z m -9.62999,-10.51 4.40999,-0.0302 0.0299,4.41003 -4.41,0.0302 z m -2.63001,-13.13 4.41001,-0.0302 0.0299,4.40999 -4.41,0.0302 z m 0.0299,-7.03997 0.0299,-5.22002 4.35,0.0401 -0.0299,5.22002 z"
     fill="#5899d4"
     id="path213"
     style="stroke-width:0.999999"
     inkscape:export-filename="/home/mark/hapee-webapp/frontend/app/blog/assets/images/hapee-world.png"
     inkscape:export-xdpi="96"
     inkscape:export-ydpi="96" />
  <path
     d="m 86.5913,301.80725 0.02,-2.61003 2.61,0.0189 -0.02,2.61003 z m -6.13,6.12998 0.02,-2.60999 2.61001,0.0189 -0.02,2.60999 z m -4.38,7.00003 0.02,-2.61003 2.61001,0.0189 -0.02,2.61 z m -3.49999,7.87997 0.02,-2.60999 2.61,0.0189 -0.02,2.60999 z m -1.75,7.88001 0.02,-2.60999 2.60999,0.0189 -0.02,2.60999 z m 0,8.76 0.02,-2.60999 2.60999,0.0189 -0.02,2.60999 z m 1.75,7.88002 0.02,-2.61003 2.61,0.0189 -0.02,2.61002 z m 3.49999,7.87997 0.02,-2.60999 2.61001,0.0189 -0.02,2.60999 z m 4.38,7.00003 0.02,-2.61003 2.61001,0.0189 -0.02,2.61002 z m 6.13,6.12997 0.02,-2.60999 2.61,0.0189 -0.02,2.60999 z m 7.00001,5.24999 0.02,-2.60999 2.61,0.0189 -0.02,2.61003 z m 7.87999,2.63003 0.02,-2.60999 2.61,0.0189 -0.02,2.60999 z m 8.75,1.74999 0.02,-2.60999 2.61,0.0189 -0.02,2.60999 z m 7.88001,-2.60999 h 2.62999 v 2.62999 h -2.62999 z m 8.74999,0.86 0.02,-2.60999 2.60999,0.0189 -0.02,2.60999 z m 7.86,-5.23 2.64,-0.0189 0.02,2.64 -2.65,0.0189 -0.02,-2.65002 z m 7.02,-2.64 0.02,-2.60999 2.60999,0.0189 -0.02,2.60999 z m 6.13001,-6.13002 0.02,-2.60999 2.61,0.0189 -0.02,2.60999 z m 4.38,-6.99998 0.02,-2.60999 2.61,0.0189 -0.02,2.60999 z m 3.5,-7.88002 0.02,-2.60999 2.61,0.0189 -0.02,2.60999 z m 0.88,-7.87997 0.02,-2.61003 2.61,0.0189 -0.02,2.61003 z m 0,-8.75002 0.02,-2.60999 2.61,0.0189 -0.02,2.60999 z m -0.88,-7.88002 0.02,-2.60999 2.61,0.0189 -0.02,2.60999 z m -3.5,-7.87997 0.02,-2.60999 2.61,0.0189 -0.02,2.60999 z m -4.38,-7.00003 0.02,-2.60999 2.61,0.0189 -0.02,2.60999 z m -6.13001,-6.12997 0.02,-2.60999 2.60999,0.0189 -0.02,2.60999 z m -6.99999,-4.38002 0.02,-2.60999 2.61,0.0189 -0.02,2.60999 z m -7.88001,-3.5 0.02,-2.60999 2.60999,0.0189 -0.02,2.60999 z m -8.74999,-1.74999 0.02,-2.60999 h 2.60999 l -0.02,2.62998 z m -7.89,-2.62999 2.64,-0.0189 0.02,2.64998 -2.65,0.0189 -0.02,-2.64 z m -8.74001,4.35999 0.02,-2.60999 2.61,0.0189 -0.02,2.60999 z m -7.89999,0.89 2.64,-0.0189 0.02,2.65001 -2.64,0.0189 -0.02,-2.64 z"
     fill="#5ea8d9"
     id="path215"
     style="stroke-width:0.999999"
     inkscape:export-filename="/home/mark/hapee-webapp/frontend/app/blog/assets/images/hapee-world.png"
     inkscape:export-xdpi="96"
     inkscape:export-ydpi="96" />
  <text
     xml:space="preserve"
     style="font-weight:900;font-size:55.1px;line-height:1.25;font-family:Montserrat;-inkscape-font-specification:'Montserrat Heavy';letter-spacing:-1.25px;fill:#26405f;fill-opacity:1;stroke-width:0.999999"
     x="249.67273"
     y="353.5278"
     id="text10584"
     inkscape:export-filename="/home/mark/hapee-webapp/frontend/app/blog/assets/images/hapee-world.png"
     inkscape:export-xdpi="96"
     inkscape:export-ydpi="96"><tspan
       sodipodi:role="line"
       id="tspan10582"
       style="font-style:normal;font-variant:normal;font-weight:600;font-stretch:normal;font-size:55.1px;font-family:Montserrat;-inkscape-font-specification:'Montserrat Semi-Bold';fill:#26405f;fill-opacity:1;stroke-width:0.999999"
       x="249.67273"
       y="353.5278">PEE WORLD</tspan></text>
</svg>
