<?xml version="1.0" encoding="UTF-8" standalone="no"?>
<svg
   id="Layer_1"
   viewBox="0 0 1000 682.09"
   version="1.1"
   sodipodi:docname="haproxy-loady3-shadow.svg"
   inkscape:version="1.1.2 (0a00cf5339, 2022-02-04)"
   xmlns:inkscape="http://www.inkscape.org/namespaces/inkscape"
   xmlns:sodipodi="http://sodipodi.sourceforge.net/DTD/sodipodi-0.dtd"
   xmlns="http://www.w3.org/2000/svg"
   xmlns:svg="http://www.w3.org/2000/svg">
  <sodipodi:namedview
     id="namedview629"
     pagecolor="#ffffff"
     bordercolor="#666666"
     borderopacity="1.0"
     inkscape:pageshadow="2"
     inkscape:pageopacity="0.0"
     inkscape:pagecheckerboard="0"
     showgrid="false"
     inkscape:zoom="1.7563665"
     inkscape:cx="500.18034"
     inkscape:cy="341.04499"
     inkscape:window-width="3440"
     inkscape:window-height="1380"
     inkscape:window-x="0"
     inkscape:window-y="0"
     inkscape:window-maximized="1"
     inkscape:current-layer="g556" />
  <defs
     id="defs338">
    <style
       id="style336">.cls-1{fill:#fff;}.cls-1,.cls-2,.cls-3,.cls-4,.cls-5,.cls-6,.cls-7,.cls-8,.cls-9,.cls-10,.cls-11,.cls-12,.cls-13,.cls-14,.cls-15,.cls-16,.cls-17{fill-rule:evenodd;}.cls-18{fill:#b5e0f7;}.cls-2{fill:#1c88c5;}.cls-3{fill:#5fa4d9;}.cls-4{fill:#385baa;}.cls-5{fill:#66acde;}.cls-6{fill:#5590c0;}.cls-7{fill:#fcdc99;}.cls-8{fill:#5089b6;}.cls-9{fill:#fefefe;}.cls-19,.cls-12{opacity:.14;}.cls-10{fill:#5fa2d8;}.cls-11{fill:#cfe9f6;}.cls-13{fill:#80c6ed;}.cls-20,.cls-15{fill:#80c7ee;}.cls-14{fill:#398dbc;}.cls-21{fill:#42a5dc;}.cls-16{fill:#0e6b9f;}.cls-22{fill:none;stroke:#084669;stroke-linecap:round;stroke-linejoin:round;stroke-width:3.24px;}</style>
  </defs>
  <g
     id="g556"
     transform="rotate(12.465621,138.78742,456.20962)">
    <path
       class="cls-12"
       d="m 263.38383,444.66301 c -82.35264,20.98073 -145.29991,52.93135 -140.60852,71.37345 4.699,18.43019 75.26226,16.39076 157.6149,-4.58997 82.35263,-20.98073 145.30752,-52.94328 140.60636,-71.38322 -4.699,-18.43019 -75.26771,-16.36907 -157.62035,4.61166"
       id="path342"
       style="opacity:0.14;fill-rule:evenodd" />
    <path
       class="cls-8"
       d="m 149.61,394.42 c -0.74,14.97 33.04,73.48 41.85,85.44 5.19,7.04 31.52,4.28 35.69,-4.82 4.17,-9.1 -12.78,-58.3 -10.82,-70.35 -14.75,-3.16 -35.81,-6.46 -50.56,-9.62"
       id="path506" />
    <path
       class="cls-6"
       d="m 57.54,346.52 c -5.3,16.15 -4.19,55.99 -14.35,62.41 -10.15,6.42 -16.52,1.71 -25.14,9.56 -8.63,7.84 -2.99,12.69 12.18,9.52 15.17,-3.16 26.57,-17.59 29.16,-40.46 2.58,-22.86 9.8,-53.79 -1.85,-41.03"
       id="path508" />
    <path
       class="cls-15"
       d="m 382.77,260.95 c -16.57,10.85 -41.23,2.72 -49.31,-6.14 -8.08,-8.87 -13.5,39.12 21.13,53.25 19.26,7.86 36.69,0.91 48.36,-6.81 5.39,-3.56 7.91,-10.39 3.63,-17.89 -4.56,-8 -12.45,-17.24 -7.56,-36.18 0,0 -11.91,10.93 -16.25,13.77 z"
       id="path510" />
    <path
       class="cls-3"
       d="m 378.63,240.96 c 9.35,-15.7 14.58,-74.17 -19.96,-90.4 -17.1,-8.03 -68.23,-9.21 -85.58,17.15 -52.42,79.63 107.78,113.08 105.54,73.25"
       id="path512" />
    <path
       class="cls-13"
       d="m 408.89,439.64 c -0.04,0.65 -0.09,1.28 -0.15,1.9 -0.04,0.39 -0.26,0.78 -0.65,1.17 -3.76,3.91 -23.12,7.6 -31.8,5.4 -0.06,-0.01 -0.13,-0.04 -0.19,-0.05 -15.21,-4.2 -21.24,-61.28 -22.94,-69.71 -85.81,48.29 -132.32,51.46 -201.13,40.64 -2.21,-0.35 1.99,16.07 7.33,35.34 6.56,23.62 14.86,51.54 15.28,58.04 0.04,0.56 -0.17,1.1 -0.59,1.63 -0.03,0.04 -0.06,0.09 -0.1,0.13 -0.31,0.36 -0.71,0.71 -1.19,1.04 -5.22,3.59 -20.21,5.58 -28.75,3.73 -0.42,-0.09 -0.85,-0.19 -1.23,-0.31 -1.91,-0.54 -3.39,-1.32 -4.21,-2.36 C 127.35,504.81 84.21,453.39 64.32,405.68 44.79,358.8 58.78,319.38 81.18,291.28 104.52,262 137,244.98 150.26,244.59 c 6.16,-31.22 39.36,-79.41 63.33,-84.81 47.33,-10.64 161.55,-15.46 182.31,60.6 6.19,34.79 -5.8,43.75 8.74,68.87 0.35,2.46 0.68,4.94 0.99,7.43 6.97,56.19 4.57,119.15 3.27,142.96 z"
       id="path514" />
    <path
       class="cls-15"
       d="m 246.61,139.59 c -1.69,-2.17 -11.72,-14.59 -25.1,-14.16 -5.08,0.16 -9.47,2.15 -9.36,3.27 0.16,1.55 8.78,-0.1 15.29,5.67 5.01,4.45 6.65,11.41 5.69,12.14 -0.97,0.74 -4.38,-5.09 -12.61,-8.3 -0.7,-0.28 -2.48,-0.94 -4.8,-1.38 -8.17,-1.56 -15.66,1.01 -15.54,2.12 0.14,1.27 9.99,-1.47 17.94,4.93 4.96,3.99 7.89,10.51 6.76,11.84 -0.81,0.94 -3.27,-1.19 -8.87,-3.13 -6.33,-2.18 -13.71,-3.11 -14.15,-1.63 -0.41,1.35 5.4,3.1 11.18,9.34 7.29,7.87 5.79,13.43 10.16,15.86 9.1,5.06 31.13,-10.31 29.46,-25.17 -0.47,-4.26 -2.76,-7.18 -6.06,-11.4"
       id="path516" />
    <path
       class="cls-3"
       d="m 269.32,266.83 c -73.01,-130.75 -155.03,-43.91 -144.48,-4.16 10.56,39.74 47.68,61.44 82.5,32.35 24.98,-9.76 54.26,23.49 65.61,13.73 12.42,-10.68 2.21,-31.43 -3.64,-41.92"
       id="path518" />
    <g
       id="g526">
      <path
         class="cls-1"
         d="m 347.25,175.64 c -5.18,6.34 -1.81,17.87 7.51,25.76 9.33,7.9 21.08,9.16 26.26,2.82 5.18,-6.33 1.81,-17.87 -7.51,-25.76 -9.32,-7.89 -21.08,-9.16 -26.25,-2.82"
         id="path520" />
      <path
         class="cls-17"
         d="m 358.37,179.59 c -2.71,3.32 -0.95,9.35 3.93,13.49 4.88,4.14 11.04,4.8 13.75,1.48 2.71,-3.32 0.95,-9.35 -3.93,-13.49 -4.88,-4.13 -11.03,-4.8 -13.74,-1.48"
         id="path522" />
      <path
         class="cls-1"
         d="m 365.52,183.53 c 0.15,1.28 1.3,2.2 2.58,2.06 1.28,-0.15 2.2,-1.3 2.05,-2.58 -0.14,-1.28 -1.3,-2.2 -2.58,-2.06 -1.28,0.14 -2.19,1.3 -2.05,2.58"
         id="path524" />
    </g>
    <path
       class="cls-17"
       d="m 383.51,273.58 c -10.96,4.64 -28.41,1.52 -34.41,-2.07 -6,-3.59 -7.53,16.29 17.08,21.8 13.69,3.06 22,0.7 29.73,-2.6 3.57,-1.52 4,-3.57 1.69,-7.43 -2.59,-4.32 -5.99,-7.68 -3.48,-15.55 0,0 -7.74,4.63 -10.6,5.85 z"
       id="path536" />
    <path
       class="cls-20"
       d="m 451.44598,393.84765 c -2.29656,0.048 -4.35874,-0.59963 -6.19536,-1.68503 -4.60133,-2.68304 -7.8353,-8.09796 -9.82333,-12.46751 -1.71189,-3.77268 -0.94016,-8.19762 1.8728,-11.22889 2.83243,-3.05618 6.5155,-7.07304 9.32618,-10.34283 25.95221,-30.21165 24.62262,-44.656 18.12435,-65.11553 -5.37394,-16.88496 -31.22251,-33.4788 -61.31958,-24.44854 -29.18957,8.75198 -62.48201,9.7492 -80.41436,-4.42943 -26.48868,-20.95787 -31.46511,-61.43901 -31.46511,-61.43901 -2.40569,-26.71654 38.75908,-26.90174 50.43432,-0.43257 1.23402,2.81762 3.48991,5.04102 6.57034,6.86116 l 0.006,0.008 c 25.8984,15.27653 110.21633,1.39212 142.68689,58.03502 34.76436,60.67747 -26.97749,126.44192 -39.79434,126.6793 z"
       id="path538" />
    <path
       class="cls-10"
       d="m 149.07,514.34 c -4.57,5.38 -5.85,7.84 -10.51,1.9 C 127.34,504.82 84.2,453.4 64.31,405.69 c -19.53,-46.88 -5.54,-86.3 16.86,-114.4 -2.95,12.78 -12.04,24.29 -13.35,50.72 -1.13,22.69 0,47.18 30.8,97.64 12.43,20.37 50.46,74.7 50.46,74.7 z"
       id="path540" />
    <path
       class="cls-18"
       d="m 451.44878,393.83379 c -2.29656,0.048 -4.35874,-0.59963 -6.19536,-1.68503 39.08735,-42.37447 43.43274,-59.73331 44.55511,-76.99334 1.68635,-25.90389 -5.06808,-40.42032 -16.06547,-53.82488 -9.14926,-11.16259 -39.74187,-27.09213 -82.01725,-33.11907 -26.14657,-3.7337 -37.95167,-12.74945 -43.16958,-19.092 25.8984,15.27653 110.21632,1.39213 142.68689,58.03502 34.76436,60.67747 -26.97748,126.44192 -39.79434,126.6793 z"
       id="path542" />
    <path
       class="cls-8"
       d="m 376.61,358.92 c -8.68,44.25 -180.63,119.5 -227.36,80.29 -2.29,-1.93 -8.51,-16.22 -10.98,-30.62 55.69,20.28 199.68,-7.73 238.34,-49.66"
       id="path544" />
    <g
       id="g550">
      <path
         class="cls-15"
         d="m 326.6,477.6 c -0.08,0.18 -0.18,0.36 -0.27,0.54 -4.48,8.08 -24.29,11.6 -35.08,8.59 -2.72,-0.74 -4.86,-1.91 -6.06,-3.53 -10.23,-13.87 -34.29,-88.93 -33.43,-106.3 l 18.75,0.74 c 17.11,3.67 41,4.76 58.12,8.43 0.98,15.24 2.81,80.97 -2.02,91.53 z"
         id="path546" />
      <path
         class="cls-5"
         d="m 326.33,478.14 c -4.48,8.08 -24.29,11.6 -35.08,8.59 -0.03,-0.19 -0.03,-0.4 -0.03,-0.6 0,-8.33 8.51,-15.08 18.99,-15.08 6.8,0 12.77,2.84 16.12,7.1 z"
         id="path548" />
    </g>
    <path
       class="cls-15"
       d="m 148.64,399.67 c 0,0 1.75,28.83 12.23,59.41 10.48,30.58 -17.91,-1.75 -17.91,-1.75 0,0 -26.21,-43.69 -22.72,-55.04 3.49,-11.36 23.59,-11.8 28.4,-2.62 z"
       id="path552" />
    <path
       class="cls-5"
       d="m 405.99,442.42 c -0.07,0.57 -0.15,1.11 -0.24,1.64 -0.65,3.7 -20.43,6.49 -28.58,3.85 -0.06,-0.01 -0.11,-0.04 -0.16,-0.06 -0.04,-0.44 -0.04,-0.9 -0.01,-1.36 0.43,-6.48 7.65,-11.27 16.15,-10.71 5.63,0.37 10.4,3 12.85,6.62 z"
       id="path554" />
    <g
       id="g534">
      <path
         class="cls-1"
         d="m 274.95,200.59 c -10.01,8.49 -10.62,24.75 -1.36,36.32 9.27,11.57 24.88,14.07 34.89,5.59 10.01,-8.49 10.62,-24.74 1.35,-36.31 -9.26,-11.58 -24.88,-14.08 -34.89,-5.59"
         id="path528" />
      <path
         class="cls-17"
         d="m 285.85,206.75 c -4.18,5.48 -2.89,14.66 2.89,20.48 5.78,5.83 13.86,6.11 18.04,0.63 4.18,-5.48 2.89,-14.65 -2.89,-20.48 -5.78,-5.83 -13.85,-6.12 -18.04,-0.63"
         id="path530" />
      <path
         class="cls-1"
         d="m 296.04,212.52 c 0.08,1.91 1.68,3.4 3.59,3.32 1.91,-0.08 3.4,-1.68 3.32,-3.6 -0.07,-1.91 -1.68,-3.4 -3.59,-3.32 -1.9,0.07 -3.39,1.68 -3.32,3.6"
         id="path532" />
    </g>
  </g>
  <path
     class="cls-5"
     d="m 162.23065,521.44826 c 0,0 -0.0899,0.0825 -0.13763,0.11296 -0.4064,0.30957 -0.90613,0.57804 -1.5035,0.82491 -6.36624,2.57656 -22.67987,1.18234 -31.26818,-2.77477 -0.42757,-0.19693 -0.85298,-0.40363 -1.22742,-0.6093 4.11733,-6.90402 12.31526,-10.72453 20.58558,-8.89625 6.33701,1.40089 11.24664,5.78398 13.55876,11.35438 z"
     id="path558" />
</svg>
