<?xml version="1.0" encoding="UTF-8"?><svg id="Layer_1" xmlns="http://www.w3.org/2000/svg" viewBox="0 0 1000 682.09"><defs><style>.cls-1{fill:#fff;}.cls-1,.cls-2,.cls-3,.cls-4,.cls-5,.cls-6,.cls-7,.cls-8,.cls-9,.cls-10,.cls-11,.cls-12,.cls-13,.cls-14,.cls-15,.cls-16,.cls-17{fill-rule:evenodd;}.cls-18{fill:#b5e0f7;}.cls-2{fill:#1c88c5;}.cls-3{fill:#5fa4d9;}.cls-4{fill:#385baa;}.cls-5{fill:#66acde;}.cls-6{fill:#5590c0;}.cls-7{fill:#fcdc99;}.cls-8{fill:#5089b6;}.cls-9{fill:#fefefe;}.cls-19,.cls-12{opacity:.14;}.cls-10{fill:#5fa2d8;}.cls-11{fill:#cfe9f6;}.cls-13{fill:#80c6ed;}.cls-20,.cls-15{fill:#80c7ee;}.cls-14{fill:#398dbc;}.cls-21{fill:#42a5dc;}.cls-16{fill:#0e6b9f;}.cls-22{fill:none;stroke:#084669;stroke-linecap:round;stroke-linejoin:round;stroke-width:3.24px;}</style></defs><polygon class="cls-19" points="742.85 383.94 995.96 530.07 742.85 676.2 489.75 530.07 742.85 383.94"/><path class="cls-12" d="M257.3,465.99c-84.94,2.71-153.3,20.32-152.7,39.34,.61,19.01,69.95,32.25,154.89,29.54,84.94-2.71,153.31-20.33,152.7-39.35-.61-19.01-69.96-32.23-154.9-29.52"/><g><polygon class="cls-16" points="435.7 468.53 357.45 513.7 357.45 576.5 435.7 531.32 435.7 468.53"/><polygon class="cls-11" points="279.21 468.53 357.45 513.7 357.45 576.5 279.21 531.32 279.21 468.53"/><polygon class="cls-21" points="357.45 423.35 435.7 468.53 357.45 513.7 279.21 468.53 357.45 423.35"/></g><g><g><polygon class="cls-16" points="975.93 469.33 900.41 512.93 900.41 573.53 975.93 529.93 975.93 469.33"/><polygon class="cls-14" points="824.9 469.33 900.41 512.93 900.41 573.53 824.9 529.93 824.9 469.33"/><polygon class="cls-21" points="900.41 425.73 975.93 469.33 900.41 512.93 824.9 469.33 900.41 425.73"/></g><g><polygon class="cls-16" points="975.93 405.16 900.41 448.76 900.41 509.36 975.93 465.76 975.93 405.16"/><polygon class="cls-14" points="824.9 405.16 900.41 448.76 900.41 509.36 824.9 465.76 824.9 405.16"/><polygon class="cls-21" points="900.41 361.56 975.93 405.16 900.41 448.76 824.9 405.16 900.41 361.56"/></g><g><polygon class="cls-16" points="975.93 340.64 900.41 384.24 900.41 444.84 975.93 401.24 975.93 340.64"/><polygon class="cls-14" points="824.9 340.64 900.41 384.24 900.41 444.84 824.9 401.24 824.9 340.64"/><polygon class="cls-21" points="900.41 297.05 975.93 340.64 900.41 384.24 824.9 340.64 900.41 297.05"/></g><g><polygon class="cls-16" points="975.93 275.97 900.41 319.57 900.41 380.16 975.93 336.57 975.93 275.97"/><polygon class="cls-11" points="824.9 275.97 900.41 319.57 900.41 380.16 824.9 336.57 824.9 275.97"/><polygon class="cls-21" points="900.41 232.37 975.93 275.97 900.41 319.57 824.9 275.97 900.41 232.37"/></g><g><polygon class="cls-16" points="975.93 211.29 900.41 254.89 900.41 315.49 975.93 271.89 975.93 211.29"/><polygon class="cls-11" points="824.9 211.29 900.41 254.89 900.41 315.49 824.9 271.89 824.9 211.29"/><polygon class="cls-21" points="900.41 167.7 975.93 211.29 900.41 254.89 824.9 211.29 900.41 167.7"/></g><g><polygon class="cls-16" points="896.88 514.1 821.37 557.7 821.37 618.3 896.88 574.7 896.88 514.1"/><polygon class="cls-14" points="745.85 514.1 821.37 557.7 821.37 618.3 745.85 574.7 745.85 514.1"/><polygon class="cls-21" points="821.37 470.51 896.88 514.1 821.37 557.7 745.85 514.1 821.37 470.51"/></g><g><polygon class="cls-16" points="896.88 449.94 821.37 493.53 821.37 554.13 896.88 510.53 896.88 449.94"/><polygon class="cls-14" points="745.85 449.94 821.37 493.53 821.37 554.13 745.85 510.53 745.85 449.94"/><polygon class="cls-21" points="821.37 406.34 896.88 449.94 821.37 493.53 745.85 449.94 821.37 406.34"/></g><g><polygon class="cls-16" points="896.88 385.42 821.37 429.02 821.37 489.62 896.88 446.02 896.88 385.42"/><polygon class="cls-14" points="745.85 385.42 821.37 429.02 821.37 489.62 745.85 446.02 745.85 385.42"/><polygon class="cls-21" points="821.37 341.82 896.88 385.42 821.37 429.02 745.85 385.42 821.37 341.82"/></g><g><polygon class="cls-16" points="658.63 465.46 583.11 509.06 583.11 569.66 658.63 526.06 658.63 465.46"/><polygon class="cls-11" points="507.6 465.46 583.11 509.06 583.11 569.66 507.6 526.06 507.6 465.46"/><polygon class="cls-21" points="583.11 421.86 658.63 465.46 583.11 509.06 507.6 465.46 583.11 421.86"/></g><g><polygon class="cls-16" points="658.63 402.4 583.11 445.99 583.11 506.59 658.63 463 658.63 402.4"/><polygon class="cls-11" points="507.6 402.4 583.11 445.99 583.11 506.59 507.6 463 507.6 402.4"/><polygon class="cls-21" points="583.11 358.8 658.63 402.4 583.11 445.99 507.6 402.4 583.11 358.8"/></g><g><polygon class="cls-16" points="658.63 337.14 583.11 380.74 583.11 441.34 658.63 397.74 658.63 337.14"/><polygon class="cls-11" points="507.6 337.14 583.11 380.74 583.11 441.34 507.6 397.74 507.6 337.14"/><polygon class="cls-21" points="583.11 293.55 658.63 337.14 583.11 380.74 507.6 337.14 583.11 293.55"/></g><g><polygon class="cls-16" points="738.78 448.83 663.27 492.43 663.27 553.03 738.78 509.43 738.78 448.83"/><polygon class="cls-11" points="587.76 448.83 663.27 492.43 663.27 553.03 587.76 509.43 587.76 448.83"/><polygon class="cls-21" points="663.27 405.23 738.78 448.83 663.27 492.43 587.76 448.83 663.27 405.23"/></g><g><polygon class="cls-16" points="738.78 383.58 663.27 427.17 663.27 487.77 738.78 444.18 738.78 383.58"/><polygon class="cls-11" points="587.76 383.58 663.27 427.17 663.27 487.77 587.76 444.18 587.76 383.58"/><polygon class="cls-21" points="663.27 339.98 738.78 383.58 663.27 427.17 587.76 383.58 663.27 339.98"/></g><g><polygon class="cls-16" points="818.38 558.88 742.87 602.48 742.87 663.08 818.38 619.48 818.38 558.88"/><polygon class="cls-11" points="667.36 558.88 742.87 602.48 742.87 663.08 667.36 619.48 667.36 558.88"/><polygon class="cls-21" points="742.87 515.28 818.38 558.88 742.87 602.48 667.36 558.88 742.87 515.28"/></g><g><polygon class="cls-16" points="818.38 494.71 742.87 538.31 742.87 598.91 818.38 555.31 818.38 494.71"/><polygon class="cls-11" points="667.36 494.71 742.87 538.31 742.87 598.91 667.36 555.31 667.36 494.71"/><polygon class="cls-21" points="742.87 451.11 818.38 494.71 742.87 538.31 667.36 494.71 742.87 451.11"/></g><g><polygon class="cls-16" points="818.38 430.2 742.87 473.79 742.87 534.39 818.38 490.8 818.38 430.2"/><polygon class="cls-11" points="667.36 430.2 742.87 473.79 742.87 534.39 667.36 490.8 667.36 430.2"/><polygon class="cls-21" points="742.87 386.6 818.38 430.2 742.87 473.79 667.36 430.2 742.87 386.6"/></g><g><polygon class="cls-16" points="818.38 365.52 742.87 409.12 742.87 469.72 818.38 426.12 818.38 365.52"/><polygon class="cls-11" points="667.36 365.52 742.87 409.12 742.87 469.72 667.36 426.12 667.36 365.52"/><polygon class="cls-21" points="742.87 321.92 818.38 365.52 742.87 409.12 667.36 365.52 742.87 321.92"/></g><g><polygon class="cls-16" points="818.38 300.84 742.87 344.44 742.87 405.04 818.38 361.44 818.38 300.84"/><polygon class="cls-11" points="667.36 300.84 742.87 344.44 742.87 405.04 667.36 361.44 667.36 300.84"/><polygon class="cls-21" points="742.87 257.25 818.38 300.84 742.87 344.44 667.36 300.84 742.87 257.25"/></g></g><g><polygon class="cls-16" points="646.7 258.68 561.06 275.04 541.14 332.27 626.78 315.92 646.7 258.68"/><polygon class="cls-11" points="504.07 209.05 561.06 275.04 541.14 332.27 484.15 266.28 504.07 209.05"/><polygon class="cls-21" points="589.71 192.69 646.7 258.68 561.06 275.04 504.07 209.05 589.71 192.69"/></g><g><path class="cls-8" d="M149.61,394.42c-.74,14.97,33.04,73.48,41.85,85.44,5.19,7.04,31.52,4.28,35.69-4.82,4.17-9.1-12.78-58.3-10.82-70.35-14.75-3.16-35.81-6.46-50.56-9.62"/><path class="cls-6" d="M57.54,346.52c-5.3,16.15-4.19,55.99-14.35,62.41-10.15,6.42-16.52,1.71-25.14,9.56-8.63,7.84-2.99,12.69,12.18,9.52,15.17-3.16,26.57-17.59,29.16-40.46,2.58-22.86,9.8-53.79-1.85-41.03"/><path class="cls-15" d="M382.77,260.95c-16.57,10.85-41.23,2.72-49.31-6.14-8.08-8.87-13.5,39.12,21.13,53.25,19.26,7.86,36.69,.91,48.36-6.81,5.39-3.56,7.91-10.39,3.63-17.89-4.56-8-12.45-17.24-7.56-36.18,0,0-11.91,10.93-16.25,13.77Z"/><path class="cls-3" d="M378.63,240.96c9.35-15.7,14.58-74.17-19.96-90.4-17.1-8.03-68.23-9.21-85.58,17.15-52.42,79.63,107.78,113.08,105.54,73.25"/><path class="cls-13" d="M408.89,439.64c-.04,.65-.09,1.28-.15,1.9-.04,.39-.26,.78-.65,1.17-3.76,3.91-23.12,7.6-31.8,5.4-.06-.01-.13-.04-.19-.05-15.21-4.2-21.24-61.28-22.94-69.71-85.81,48.29-132.32,51.46-201.13,40.64-2.21-.35,1.99,16.07,7.33,35.34,6.56,23.62,14.86,51.54,15.28,58.04,.04,.56-.17,1.1-.59,1.63-.03,.04-.06,.09-.1,.13-.31,.36-.71,.71-1.19,1.04-5.22,3.59-20.21,5.58-28.75,3.73-.42-.09-.85-.19-1.23-.31-1.91-.54-3.39-1.32-4.21-2.36-11.22-11.42-54.36-62.84-74.25-110.55-19.53-46.88-5.54-86.3,16.86-114.4,23.34-29.28,55.82-46.3,69.08-46.69,6.16-31.22,39.36-79.41,63.33-84.81,47.33-10.64,161.55-15.46,182.31,60.6,6.19,34.79-5.8,43.75,8.74,68.87,.35,2.46,.68,4.94,.99,7.43,6.97,56.19,4.57,119.15,3.27,142.96Z"/><path class="cls-15" d="M246.61,139.59c-1.69-2.17-11.72-14.59-25.1-14.16-5.08,.16-9.47,2.15-9.36,3.27,.16,1.55,8.78-.1,15.29,5.67,5.01,4.45,6.65,11.41,5.69,12.14-.97,.74-4.38-5.09-12.61-8.3-.7-.28-2.48-.94-4.8-1.38-8.17-1.56-15.66,1.01-15.54,2.12,.14,1.27,9.99-1.47,17.94,4.93,4.96,3.99,7.89,10.51,6.76,11.84-.81,.94-3.27-1.19-8.87-3.13-6.33-2.18-13.71-3.11-14.15-1.63-.41,1.35,5.4,3.1,11.18,9.34,7.29,7.87,5.79,13.43,10.16,15.86,9.1,5.06,31.13-10.31,29.46-25.17-.47-4.26-2.76-7.18-6.06-11.4"/><path class="cls-3" d="M269.32,266.83c-73.01-130.75-155.03-43.91-144.48-4.16,10.56,39.74,47.68,61.44,82.5,32.35,24.98-9.76,54.26,23.49,65.61,13.73,12.42-10.68,2.21-31.43-3.64-41.92"/><g><path class="cls-1" d="M347.25,175.64c-5.18,6.34-1.81,17.87,7.51,25.76,9.33,7.9,21.08,9.16,26.26,2.82,5.18-6.33,1.81-17.87-7.51-25.76-9.32-7.89-21.08-9.16-26.25-2.82"/><path class="cls-17" d="M358.37,179.59c-2.71,3.32-.95,9.35,3.93,13.49,4.88,4.14,11.04,4.8,13.75,1.48,2.71-3.32,.95-9.35-3.93-13.49-4.88-4.13-11.03-4.8-13.74-1.48"/><path class="cls-1" d="M365.52,183.53c.15,1.28,1.3,2.2,2.58,2.06,1.28-.15,2.2-1.3,2.05-2.58-.14-1.28-1.3-2.2-2.58-2.06-1.28,.14-2.19,1.3-2.05,2.58"/></g><g><path class="cls-1" d="M274.95,200.59c-10.01,8.49-10.62,24.75-1.36,36.32,9.27,11.57,24.88,14.07,34.89,5.59,10.01-8.49,10.62-24.74,1.35-36.31-9.26-11.58-24.88-14.08-34.89-5.59"/><path class="cls-17" d="M285.85,206.75c-4.18,5.48-2.89,14.66,2.89,20.48,5.78,5.83,13.86,6.11,18.04,.63,4.18-5.48,2.89-14.65-2.89-20.48-5.78-5.83-13.85-6.12-18.04-.63"/><path class="cls-1" d="M296.04,212.52c.08,1.91,1.68,3.4,3.59,3.32,1.91-.08,3.4-1.68,3.32-3.6-.07-1.91-1.68-3.4-3.59-3.32-1.9,.07-3.39,1.68-3.32,3.6"/></g><path class="cls-17" d="M383.51,273.58c-10.96,4.64-28.41,1.52-34.41-2.07-6-3.59-7.53,16.29,17.08,21.8,13.69,3.06,22,.7,29.73-2.6,3.57-1.52,4-3.57,1.69-7.43-2.59-4.32-5.99-7.68-3.48-15.55,0,0-7.74,4.63-10.6,5.85Z"/><path class="cls-20" d="M572.6,239.23c-1.23,1.94-2.91,3.3-4.83,4.23-4.78,2.35-11.08,2.05-15.82,1.29-4.09-.66-7.35-3.75-8.32-7.77-.98-4.05-2.29-9.34-3.46-13.49-10.82-38.33-23.59-45.21-44.23-51.11-17.04-4.86-45.16,7.5-54.28,37.57-8.85,29.16-26.43,57.45-48.16,64.55-32.11,10.48-68.59-7.76-68.59-7.76-23.59-12.77-.98-47.17,27.53-42.26,3.03,.53,6.13-.12,9.35-1.68h.01c27.05-13.13,62.11-91.06,127.26-86.79,69.78,4.59,90.43,92.4,83.54,103.21Z"/><path class="cls-10" d="M149.07,514.34c-4.57,5.38-5.85,7.84-10.51,1.9-11.22-11.42-54.36-62.84-74.25-110.55-19.53-46.88-5.54-86.3,16.86-114.4-2.95,12.78-12.04,24.29-13.35,50.72-1.13,22.69,0,47.18,30.8,97.64,12.43,20.37,50.46,74.7,50.46,74.7Z"/><path class="cls-18" d="M572.6,239.23c-1.23,1.94-2.91,3.3-4.83,4.23-13.69-56-25.75-69.22-39.51-79.7-20.65-15.73-36.48-18.13-53.73-16.38-14.36,1.45-44.55,18.13-72.95,50.02-17.57,19.72-31.61,24.57-39.78,25.41,27.05-13.13,62.11-91.06,127.26-86.79,69.78,4.59,90.43,92.4,83.54,103.21Z"/><path class="cls-8" d="M376.61,358.92c-8.68,44.25-180.63,119.5-227.36,80.29-2.29-1.93-8.51-16.22-10.98-30.62,55.69,20.28,199.68-7.73,238.34-49.66"/><g><path class="cls-15" d="M326.6,477.6c-.08,.18-.18,.36-.27,.54-4.48,8.08-24.29,11.6-35.08,8.59-2.72-.74-4.86-1.91-6.06-3.53-10.23-13.87-34.29-88.93-33.43-106.3l18.75,.74c17.11,3.67,41,4.76,58.12,8.43,.98,15.24,2.81,80.97-2.02,91.53Z"/><path class="cls-5" d="M326.33,478.14c-4.48,8.08-24.29,11.6-35.08,8.59-.03-.19-.03-.4-.03-.6,0-8.33,8.51-15.08,18.99-15.08,6.8,0,12.77,2.84,16.12,7.1Z"/></g><path class="cls-15" d="M148.64,399.67s1.75,28.83,12.23,59.41c10.48,30.58-17.91-1.75-17.91-1.75,0,0-26.21-43.69-22.72-55.04,3.49-11.36,23.59-11.8,28.4-2.62Z"/><path class="cls-5" d="M405.99,442.42c-.07,.57-.15,1.11-.24,1.64-.65,3.7-20.43,6.49-28.58,3.85-.06-.01-.11-.04-.16-.06-.04-.44-.04-.9-.01-1.36,.43-6.48,7.65-11.27,16.15-10.71,5.63,.37,10.4,3,12.85,6.62Z"/></g><path class="cls-5" d="M175.76,514.85s-.07,.1-.11,.14c-.33,.39-.76,.76-1.29,1.13-5.66,3.89-21.89,6.05-31.13,4.04-.46-.1-.92-.21-1.33-.33,2.53-7.63,9.71-13.13,18.18-13.13,6.49,0,12.23,3.22,15.69,8.16Z"/><g><path class="cls-4" d="M742.27,140.85c-2.7-6.12,2.8-10.21,4.52-12.06,5.53-5.97,7.11-15.47,6.81-21.98,14.8,10.46,15.76,27.48,1.56,37.74-3.7,2.67-10.19,2.42-12.9-3.69"/><path class="cls-2" d="M755.01,124.19c11.85,5.73,19.87,14.76,25.24,26.31,5.37,11.54,5.28,16.25,16.09,15.47,6.37-.4,4.73,8.85-5.34,7.61,5.29,4.17-2.75,6.53-6.44,5.74,2.69,4.55-5.35,4.13-8.87,1.98-22.86,6.01-46.07-3.9-43.97-38.82-2-10.4-1.59-13.41,2.45-17.1,4.1-3.75,10.91-5.99,20.85-1.18"/><path class="cls-4" d="M754.34,138.85c3.73-8.16,12.74-6.29,16.14-6.22,10.93,.23,21.86-6.66,28.13-12.76,2.71,24.18-13.53,40.32-36.48,35.22-5.98-1.33-11.52-8.07-7.79-16.23"/><path class="cls-9" d="M734.22,128.75c-.59-.18-1.31,.47-1.6,1.44-.29,.97-.05,1.9,.54,2.08,.59,.18,1.31-.47,1.6-1.44,.29-.97,.05-1.9-.54-2.08"/><path class="cls-9" d="M743.33,128.23c-1.11,.12-1.92,1.11-1.8,2.22,.12,1.11,1.11,1.92,2.22,1.8,1.11-.12,1.92-1.11,1.8-2.22-.12-1.11-1.11-1.92-2.22-1.8"/><path class="cls-7" d="M734.5,133.19c-1.72,.54-8.06,3.12-9.31,3.82,1.38,3.09,8.43,7.54,12.58,1.49,1.54-4.44-1.06-5.99-3.27-5.31"/></g><g><path class="cls-4" d="M672.94,39.93c2.7-6.12-2.8-10.21-4.52-12.06-5.53-5.97-7.11-15.47-6.81-21.98-14.8,10.46-15.76,27.48-1.56,37.74,3.7,2.67,10.19,2.42,12.9-3.69"/><path class="cls-2" d="M660.2,23.27c-11.85,5.73-19.87,14.76-25.24,26.31-5.37,11.54-5.28,16.25-16.09,15.47-6.37-.4-4.73,8.85,5.34,7.61-5.29,4.17,2.75,6.53,6.44,5.74-2.69,4.55,5.35,4.13,8.87,1.98,22.86,6.01,46.07-3.9,43.97-38.82,2-10.4,1.59-13.41-2.45-17.1-4.1-3.75-10.91-5.99-20.85-1.18"/><path class="cls-4" d="M660.87,37.94c-3.73-8.16-12.74-6.29-16.14-6.22-10.93,.23-21.86-6.66-28.13-12.76-2.71,24.18,13.53,40.32,36.48,35.22,5.98-1.33,11.52-8.07,7.79-16.23"/><path class="cls-9" d="M680.99,27.84c.59-.18,1.31,.47,1.6,1.44,.29,.97,.05,1.9-.54,2.08-.59,.18-1.31-.47-1.6-1.44-.29-.97-.05-1.9,.54-2.08"/><path class="cls-9" d="M671.88,27.32c1.11,.12,1.92,1.11,1.8,2.22-.12,1.11-1.11,1.92-2.22,1.8-1.11-.12-1.92-1.11-1.8-2.22,.12-1.11,1.11-1.92,2.22-1.8"/><path class="cls-7" d="M680.72,32.28c1.72,.54,8.06,3.12,9.31,3.82-1.38,3.09-8.43,7.54-12.58,1.49-1.54-4.44,1.06-5.99,3.27-5.31"/></g><g><path class="cls-22" d="M482.65,119.14s2.65,5.89-3.49,11.05c-6.15,5.16-.73,6.4,1.27,7.37"/><path class="cls-22" d="M494.88,117.54s2.65,5.89-3.49,11.05c-6.15,5.16-.73,6.4,1.27,7.37"/><g><path class="cls-4" d="M469.62,94.07c-5.36-4.3-10.87,.09-13.17,1.3-7.39,3.91-17.22,2.97-23.61,.96,6.47,17.45,23.12,22.89,37.04,11.51,3.63-2.96,5.1-9.48-.26-13.77"/><path class="cls-2" d="M474.82,65.75c13.34,2.16,23.88,8.7,32.56,18.48,8.67,9.78,9.97,14.44,20.37,10.51,6.15-2.26,7.25,7.33-3.02,9.06,6.43,2.56-.79,7.24-4.66,7.54,3.99,3.69-4.05,5.64-8.15,4.55-20.73,12.62-46.48,9.67-54.66-25.31-5.01-9.65-5.5-12.73-2.6-17.55,2.93-4.89,8.98-9.09,20.17-7.28"/><path class="cls-4" d="M482.39,81.28c2.83-8.77,12.24-7.94,15.72-8.27,11.17-1.08,21.5-9.4,27.17-16.38,5.65,24.34-8.98,42.74-33,40.28-6.26-.64-12.72-6.85-9.89-15.63"/><path class="cls-7" d="M458.7,79.79c-1.83,1.23-8.34,6.46-9.57,7.71,2.7,3.14,12.5,5.88,15.25-2.64,.25-5.73-3.33-6.65-5.68-5.08"/><path class="cls-9" d="M463.24,72.22c-1.11,.12-1.92,1.11-1.8,2.22,.12,1.11,1.11,1.92,2.22,1.8,1.11-.12,1.92-1.11,1.8-2.22-.12-1.11-1.11-1.92-2.22-1.8"/><path class="cls-9" d="M454.07,76.87c-.92,.1-1.58,.92-1.48,1.83,.1,.92,.92,1.58,1.83,1.48,.92-.1,1.58-.92,1.48-1.83-.1-.92-.92-1.58-1.83-1.48"/></g></g><g><path class="cls-22" d="M73.56,276.63s2.08,6.12,10.09,5.7c8.02-.42,4.9,4.18,4.1,6.26"/><path class="cls-22" d="M63.52,283.81s2.08,6.12,10.09,5.7c8.02-.42,4.9,4.19,4.09,6.26"/><g><path class="cls-4" d="M63.49,240.52c-.6-6.66-7.4-7.57-9.81-8.36-7.74-2.54-13.72-10.08-16.62-15.92-7.87,16.33-.45,31.68,16.94,33.76,4.53,.54,10.09-2.83,9.49-9.49"/><path class="cls-2" d="M44.27,232.13c-7.59,10.76-10.21,22.55-9.31,35.25,.9,12.7,3.26,16.77-6.56,21.34-5.77,2.74,.16,10.04,8.36,4.06-2.6,6.22,5.58,4.38,8.42,1.89-.15,5.29,6.68,1.02,8.72-2.58,22.9-5.83,38.39-25.76,19.62-55.28-3.3-10.06-5.11-12.49-10.44-13.77-5.4-1.29-12.44,.05-18.8,9.08"/><path class="cls-4" d="M51.97,244.63c-7.22-5.33-14.19,.68-17.13,2.39-9.45,5.5-22.34,4.78-30.79,2.49,9.36,22.46,31.39,28.7,48.99,13.1,4.58-4.06,6.16-12.64-1.06-17.98"/><path class="cls-9" d="M64.67,226.03c.43-.44,1.37-.23,2.1,.48,.73,.71,.97,1.64,.54,2.08-.43,.44-1.37,.23-2.1-.48-.73-.71-.97-1.64-.54-2.08"/><path class="cls-9" d="M56.44,230c1.03-.44,2.22,.04,2.65,1.07,.44,1.03-.04,2.22-1.07,2.65-1.03,.44-2.22-.04-2.65-1.07-.44-1.03,.04-2.22,1.07-2.65"/><path class="cls-7" d="M66.58,230.05c1.77-.37,8.56-1.18,9.99-1.18,.29,3.37-3.71,10.68-10.27,7.41-3.5-3.14-1.98-5.76,.28-6.23"/></g></g></svg>