<?xml version="1.0" encoding="UTF-8" standalone="no"?>
<svg
   id="Layer_1"
   viewBox="0 0 1000 682.09"
   version="1.1"
   sodipodi:docname="haproxy-loady2.svg"
   inkscape:version="1.1.2 (0a00cf5339, 2022-02-04)"
   xmlns:inkscape="http://www.inkscape.org/namespaces/inkscape"
   xmlns:sodipodi="http://sodipodi.sourceforge.net/DTD/sodipodi-0.dtd"
   xmlns="http://www.w3.org/2000/svg"
   xmlns:svg="http://www.w3.org/2000/svg">
  <sodipodi:namedview
     id="namedview629"
     pagecolor="#ffffff"
     bordercolor="#666666"
     borderopacity="1.0"
     inkscape:pageshadow="2"
     inkscape:pageopacity="0.0"
     inkscape:pagecheckerboard="0"
     showgrid="false"
     inkscape:zoom="1.7563665"
     inkscape:cx="500.18035"
     inkscape:cy="341.045"
     inkscape:window-width="3440"
     inkscape:window-height="1380"
     inkscape:window-x="0"
     inkscape:window-y="0"
     inkscape:window-maximized="1"
     inkscape:current-layer="g1383" />
  <defs
     id="defs338">
    <style
       id="style336">.cls-1{fill:#fff;}.cls-1,.cls-2,.cls-3,.cls-4,.cls-5,.cls-6,.cls-7,.cls-8,.cls-9,.cls-10,.cls-11,.cls-12,.cls-13,.cls-14,.cls-15,.cls-16,.cls-17{fill-rule:evenodd;}.cls-18{fill:#b5e0f7;}.cls-2{fill:#1c88c5;}.cls-3{fill:#5fa4d9;}.cls-4{fill:#385baa;}.cls-5{fill:#66acde;}.cls-6{fill:#5590c0;}.cls-7{fill:#fcdc99;}.cls-8{fill:#5089b6;}.cls-9{fill:#fefefe;}.cls-19,.cls-12{opacity:.14;}.cls-10{fill:#5fa2d8;}.cls-11{fill:#cfe9f6;}.cls-13{fill:#80c6ed;}.cls-20,.cls-15{fill:#80c7ee;}.cls-14{fill:#398dbc;}.cls-21{fill:#42a5dc;}.cls-16{fill:#0e6b9f;}.cls-22{fill:none;stroke:#084669;stroke-linecap:round;stroke-linejoin:round;stroke-width:3.24px;}</style>
  </defs>
  <g
     id="g1383"
     transform="translate(104.88663,-49.27147)">
    <path
       class="cls-8"
       d="m 162.69239,398.21274 c -3.95389,14.45736 16.40017,78.87957 22.42087,92.45929 3.54804,7.99432 29.85308,10.98282 35.88905,2.99745 6.03596,-7.98536 0.10555,-59.68423 4.62038,-71.02708 -13.72018,-6.26935 -33.57139,-14.03744 -47.29157,-20.30678"
       id="path506" />
    <path
       class="cls-6"
       d="m 83.132269,331.56829 c -8.661094,14.62525 -16.176876,53.76565 -27.483143,57.84123 -11.296502,4.07774 -16.499662,-1.89622 -26.610904,3.90807 -10.118847,5.79236 -5.658697,11.74544 9.837937,11.92467 15.494476,0.18899 29.740499,-11.4401 37.206017,-33.21189 7.453596,-21.76419 21.179747,-50.40657 7.050093,-40.46208"
       id="path508" />
    <path
       class="cls-15"
       d="m 419.16581,318.21767 c -18.52139,7.01752 -40.84516,-6.24377 -46.82221,-16.639 -5.9749,-10.405 -21.62595,35.28374 9.13766,56.55565 17.10935,11.83205 35.62863,8.80823 48.68991,3.78923 6.03137,-2.31262 9.96625,-8.43766 7.40605,-16.6847 -2.72567,-8.7957 -8.43518,-19.52096 0.42781,-36.95894 0,0 -13.98851,8.10152 -18.83922,9.93776 z"
       id="path510" />
    <path
       class="cls-3"
       d="m 419.43832,297.80528 c 12.51849,-13.31165 30.24616,-69.27434 0.0237,-92.57732 -14.96358,-11.5318 -64.63352,-23.72058 -87.26441,-1.72707 -68.37267,66.43773 80.83042,133.67894 87.24068,94.30439"
       id="path512" />
    <path
       class="cls-13"
       d="m 406.09914,498.33328 c -0.17937,0.62604 -0.36418,1.2304 -0.55659,1.82283 -0.12324,0.37217 -0.42224,0.70549 -0.88723,1.00211 -4.51534,3.00622 -24.21545,2.4303 -32.21594,-1.59145 -0.0564,-0.0227 -0.1183,-0.0671 -0.17473,-0.0898 -13.94485,-7.38413 -7.51176,-64.4201 -7.35204,-73.01832 -94.21067,28.62918 -140.30848,21.68509 -205.1608,-3.73273 -2.08235,-0.81879 -1.52568,16.12071 -0.47107,36.08909 1.30689,24.47918 3.38458,53.53257 2.39163,59.96999 -0.0818,0.55544 -0.40343,1.03738 -0.92793,1.46422 -0.0379,0.0326 -0.078,0.0749 -0.12571,0.10535 -0.38039,0.2846 -0.84651,0.54001 -1.38643,0.75862 -5.87186,2.37861 -20.93803,1.08605 -28.87737,-2.56373 -0.39068,-0.17854 -0.78895,-0.36899 -1.13409,-0.56819 -1.74841,-0.93955 -3.02516,-2.02063 -3.60134,-3.21311 -8.49045,-13.57266 -39.51425,-73.0924 -48.636974,-123.971 -8.950369,-49.99046 13.218782,-85.46137 41.156214,-108.06381 29.10997,-23.55172 64.49811,-33.15955 77.5297,-30.67814 12.75373,-29.15435 55.57306,-69.04196 80.14359,-69.14064 48.51092,-0.17281 161.07867,19.77563 164.93143,98.5237 -1.46547,35.30598 -15.10687,41.46667 -6.33188,69.133 -0.18926,2.47755 -0.40235,4.97032 -0.63714,7.46854 -5.32313,56.36986 -21.25671,117.32757 -27.66554,140.29566 z"
       id="path514" />
    <path
       class="cls-15"
       d="m 312.4117,170.328 c -1.18176,-2.48364 -8.29441,-16.77586 -21.4518,-19.24412 -4.99478,-0.94031 -9.71084,0.0552 -9.84518,1.17252 -0.17835,1.548 8.5946,1.79755 13.70565,8.83674 3.93135,5.42652 4.03034,12.57644 2.9354,13.08201 -1.10686,0.51318 -3.17805,-5.91544 -10.52114,-10.82625 -0.62306,-0.42449 -2.21863,-1.45315 -4.38897,-2.38356 -7.64066,-3.28675 -15.50883,-2.39408 -15.63126,-1.28435 -0.13744,1.27028 10.0718,0.72104 16.45292,8.6862 3.98181,4.96657 5.43537,11.96532 4.04493,13.02005 -0.99381,0.743 -2.93605,-1.86779 -7.98528,-4.97084 -5.71021,-3.49496 -12.71549,-5.99603 -13.46458,-4.6459 -0.69174,1.22967 4.60355,4.19253 8.90036,11.53306 5.41938,9.25805 2.75459,14.36319 6.49705,17.67919 7.79325,6.90498 32.62158,-3.34742 34.19854,-18.21759 0.46062,-4.26102 -1.14511,-7.60649 -3.45641,-12.43932"
       id="path516" />
    <path
       class="cls-3"
       d="M 307.12109,299.47044 C 264.05513,156.0433 165.22395,223.13178 166.94506,264.22196 c 1.73302,41.08257 33.29392,70.2835 73.57225,49.39531 26.49785,-4.13789 47.91045,34.64846 61.09962,27.56849 14.43252,-7.74733 8.94218,-30.21203 5.4944,-41.71748"
       id="path518" />
    <path
       class="cls-1"
       d="m 402.89765,227.25167 c -6.4264,5.07241 -5.62464,17.05803 1.77257,26.77378 7.4048,9.72768 18.60583,13.49426 25.03223,8.42184 6.42424,-5.06265 5.62463,-17.05803 -1.77257,-26.77378 -7.3972,-9.71576 -18.60583,-13.49426 -25.02246,-8.41969"
       id="path520" />
    <path
       class="cls-17"
       d="m 411.80976,235.99795 c -3.36275,2.65677 -2.94583,8.92452 0.92549,14.02029 3.87132,5.09577 9.74364,7.06987 13.10639,4.4131 3.36275,-2.65677 2.94584,-8.92452 -0.92549,-14.02029 -3.87348,-5.086 -9.73387,-7.06771 -13.09662,-4.41094"
       id="path522" />
    <path
       class="cls-1"
       d="m 417.94074,241.38842 c -0.12983,1.28221 0.79448,2.42875 2.07452,2.56834 1.28221,0.12983 2.42875,-0.79447 2.55858,-2.07668 0.13959,-1.28004 -0.79448,-2.42874 -2.07452,-2.56833 -1.28005,-0.1396 -2.41898,0.79663 -2.55858,2.07667"
       id="path524" />
    <path
       class="cls-1"
       d="m 326.91652,236.00726 c -11.60662,6.12916 -15.71202,21.87417 -9.16775,35.17022 6.55404,13.29821 21.25641,19.10875 32.86087,12.98936 11.60662,-6.12916 15.70987,-21.86441 9.15583,-35.16262 -6.54212,-13.30581 -21.25425,-19.11851 -32.86087,-12.98935"
       id="path528" />
    <path
       class="cls-17"
       d="m 334.62685,248.11331 c -5.26434,4.44854 -5.98628,13.69058 -1.59881,20.62101 4.38531,6.9402 12.21439,8.9577 17.47873,4.50915 5.26434,-4.44854 5.98413,-13.68081 1.59881,-20.62101 -4.38531,-6.9402 -12.20247,-8.9653 -17.47873,-4.50915"
       id="path530" />
    <path
       class="cls-1"
       d="m 343.33115,255.94683 c -0.33416,1.88225 0.9065,3.68249 2.78874,4.01665 1.88224,0.33417 3.68248,-0.90649 4.0188,-2.7985 0.34394,-1.88008 -0.90649,-3.68248 -2.78873,-4.01664 -1.87032,-0.34178 -3.67272,0.90865 -4.01881,2.79849"
       id="path532" />
    <path
       class="cls-17"
       d="m 417.16213,330.70966 c -11.70319,2.16486 -28.06835,-4.64824 -33.15199,-9.44873 -5.08364,-4.80049 -10.86875,14.28059 11.97174,24.97286 12.70675,5.9429 21.33026,5.43228 29.59035,3.87863 3.81394,-0.71357 4.6763,-2.62243 3.25396,-6.89005 -1.59646,-4.77722 -4.19104,-8.79192 -0.0414,-15.93459 0,0 -8.55694,2.85014 -11.61286,3.42404 z"
       id="path536" />
    <path
       class="cls-20"
       d="m 601.05792,419.29999 c -2.13888,0.83768 -4.29786,0.94153 -6.39625,0.55668 -5.24459,-0.93013 -10.14869,-4.89621 -13.52261,-8.31116 -2.90876,-2.95005 -3.71162,-7.36946 -2.11767,-11.18529 1.60361,-3.84595 3.67407,-8.88712 5.18355,-12.92604 13.93076,-37.31213 7.69772,-50.41009 -5.4624,-67.36978 -10.8712,-13.99278 -40.85851,-20.646 -65.98971,-1.78328 -24.3755,18.28833 -55.27815,30.71439 -77.00209,23.59589 -32.09424,-10.52819 -50.73603,-46.80451 -50.73603,-46.80451 -11.47848,-24.2447 27.09305,-38.62558 47.18615,-17.81223 2.13063,2.2186 5.01525,3.52682 8.5346,4.172 l 0.008,0.006 c 29.57945,5.39965 103.92466,-36.73203 153.94908,5.22403 53.56974,44.95109 18.31864,127.98349 6.37123,132.62973 z"
       id="path538" />
    <path
       class="cls-10"
       d="m 136.27993,515.18915 c -5.62356,4.26672 -7.40438,6.39243 -10.67235,-0.41341 -8.49045,-13.57266 -39.514253,-73.09241 -48.636977,-123.97101 -8.950369,-49.99046 13.218783,-85.46137 41.156207,-108.0638 -5.63906,11.84195 -16.99925,21.1185 -23.983384,46.64266 -6.001083,21.91119 -10.183981,46.06777 8.997954,101.9865 7.74003,22.57286 33.14616,83.83098 33.14616,83.83098 z"
       id="path540" />
    <path
       class="cls-18"
       d="m 610.12809,407.97236 c -2.07643,0.98232 -4.22321,1.23392 -6.34305,0.99381 18.35837,-54.64784 15.23067,-72.26685 9.20174,-88.47857 -9.0465,-24.33139 -21.14335,-34.82019 -36.65835,-42.56035 -12.91203,-6.44915 -47.34325,-8.48622 -88.39053,3.28886 -25.38951,7.27709 -39.84821,3.87264 -47.20244,0.21616 29.88,3.35936 101.16236,-43.76932 153.94508,-5.34095 56.52497,41.17334 27.04837,126.42678 15.44755,131.88104 z"
       id="path542" />
    <path
       class="cls-8"
       d="m 392.00383,412.54844 c -18.0269,41.33322 -202.1663,77.6932 -239.33105,29.3207 -1.81941,-2.37881 -4.80823,-17.67454 -4.11171,-32.26823 49.99964,31.82281 196.64124,35.55391 243.4406,2.95729"
       id="path544" />
    <g
       id="g550"
       transform="rotate(12.465621,138.78742,456.20962)">
      <path
         class="cls-15"
         d="m 326.6,477.6 c -0.08,0.18 -0.18,0.36 -0.27,0.54 -4.48,8.08 -24.29,11.6 -35.08,8.59 -2.72,-0.74 -4.86,-1.91 -6.06,-3.53 -10.23,-13.87 -34.29,-88.93 -33.43,-106.3 l 18.75,0.74 c 17.11,3.67 41,4.76 58.12,8.43 0.98,15.24 2.81,80.97 -2.02,91.53 z"
         id="path546" />
      <path
         class="cls-5"
         d="m 326.33,478.14 c -4.48,8.08 -24.29,11.6 -35.08,8.59 -0.03,-0.19 -0.03,-0.4 -0.03,-0.6 0,-8.33 8.51,-15.08 18.99,-15.08 6.8,0 12.77,2.84 16.12,7.1 z"
         id="path548" />
    </g>
    <path
       class="cls-15"
       d="m 160.61202,403.1296 c 0,0 -4.51432,28.5281 -0.88218,60.64934 3.63213,32.12125 -17.11004,-5.57469 -17.11004,-5.57469 0,0 -16.16147,-48.31756 -10.3038,-58.64666 5.85982,-10.33887 25.58095,-6.42984 28.29602,3.57201 z"
       id="path552" />
    <path
       class="cls-5"
       d="m 402.66743,500.42177 c -0.19139,0.54145 -0.38606,1.05145 -0.58834,1.54953 -1.43334,3.47247 -21.34927,1.92711 -28.73729,-2.40986 -0.0564,-0.0227 -0.0988,-0.0628 -0.14327,-0.0931 0.0559,-0.43826 0.15521,-0.88741 0.28379,-1.33009 1.8186,-6.23442 9.90233,-9.35304 18.08107,-6.97148 5.41741,1.57653 9.50727,5.17415 11.11812,9.23766 z"
       id="path554" />
    <path
       class="cls-5"
       d="m 162.23065,521.44826 c 0,0 -0.0899,0.0825 -0.13763,0.11296 -0.4064,0.30957 -0.90613,0.57804 -1.5035,0.82491 -6.36624,2.57656 -22.67987,1.18234 -31.26818,-2.77477 -0.42757,-0.19693 -0.85298,-0.40363 -1.22742,-0.6093 4.11733,-6.90402 12.31526,-10.72453 20.58558,-8.89625 6.33701,1.40089 11.24664,5.78398 13.55876,11.35438 z"
       id="path558" />
  </g>
</svg>
